  0
SECTION
  2
HEADER
  9
$ANGBASE
  50
0.0
  9
$ANGDIR
  70
1
  9
$MEASUREMENT
  70
1
  0
ENDSEC
  0
SECTION
  2
TABLES
  0
TABLE
  2
LTYPE
  70
4
  0
LTYPE
  5
40F
  2
CONTINUOUS
  70
0
  3
Solid line
  72
65
  73
0
  40
0.0
  0
LTYPE
  5
410
  2
DASHDOT
 70
0
  3
Dash Dot ____ _ ____ _
 72
65
 73
4
 40
2.0
 49
1.25
 49
-0.25
 49
0.25
 49
-0.25
  0
LTYPE
  5
411
  2
DASHED
 70
0
  3
Dashed __ __ __ __ __
 72
65
 73
2
 40
0.75
 49
0.5
 49
-0.25
  0
LTYPE
  5
43B
  2
DOTTED
 70
0
  3
Dotted .  .  .  .
 72
65
 73
2
 40
0.2
 49
0.0
 49
-0.2
  0
ENDTAB
  0
TABLE
  2
STYLE
  70
4
  0
STYLE
  2
KICAD
  70
0
  40
0
  41
1
  42
1
  50
0
  71
0
  3
isocp.shx
  0
STYLE
  2
KICADB
  70
0
  40
0
  41
1
  42
1
  50
0
  71
0
  3
isocp.shx
  0
STYLE
  2
KICADI
  70
0
  40
0
  41
1
  42
1
  50
15
  71
0
  3
isocp.shx
  0
STYLE
  2
KICADBI
  70
0
  40
0
  41
1
  42
1
  50
15
  71
0
  3
isocp.shx
  0
ENDTAB
  0
TABLE
  2
LAYER
  70
1
  0
LAYER
  2
BLACK
  70
0
  62
7
  6
CONTINUOUS
  0
ENDTAB
  0
ENDSEC
  0
SECTION
  2
ENTITIES
0
LINE
8
BLACK
6
CONTINUOUS
10
177.002
20
-166.007
11
177.002
21
-198.007
0
LINE
8
BLACK
6
CONTINUOUS
10
177.002
20
-198.007
11
285.002
21
-198.007
0
LINE
8
BLACK
6
CONTINUOUS
10
285.002
20
-198.007
11
285.002
21
-166.007
0
LINE
8
BLACK
6
CONTINUOUS
10
285.002
20
-166.007
11
177.002
21
-166.007
0
LINE
8
BLACK
6
CONTINUOUS
10
10
20
-10
11
10
21
-200.007
0
LINE
8
BLACK
6
CONTINUOUS
10
10
20
-200.007
11
287.002
21
-200.007
0
LINE
8
BLACK
6
CONTINUOUS
10
287.002
20
-200.007
11
287.002
21
-10
0
LINE
8
BLACK
6
CONTINUOUS
10
287.002
20
-10
11
10
21
-10
0
LINE
8
BLACK
6
CONTINUOUS
10
12
20
-12
11
12
21
-198.007
0
LINE
8
BLACK
6
CONTINUOUS
10
12
20
-198.007
11
285.002
21
-198.007
0
LINE
8
BLACK
6
CONTINUOUS
10
285.002
20
-198.007
11
285.002
21
-12
0
LINE
8
BLACK
6
CONTINUOUS
10
285.002
20
-12
11
12
21
-12
0
LINE
8
BLACK
6
CONTINUOUS
10
60
20
-12
11
60
21
-10
0
LINE
8
BLACK
6
CONTINUOUS
10
110
20
-12
11
110
21
-10
0
LINE
8
BLACK
6
CONTINUOUS
10
160
20
-12
11
160
21
-10
0
LINE
8
BLACK
6
CONTINUOUS
10
210
20
-12
11
210
21
-10
0
LINE
8
BLACK
6
CONTINUOUS
10
260
20
-12
11
260
21
-10
0
LINE
8
BLACK
6
CONTINUOUS
10
36.0655
20
-11.5881
11
35.3226
21
-11.5881
0
LINE
8
BLACK
6
CONTINUOUS
10
35.694
20
-11.5881
11
35.694
21
-10.2881
0
LINE
8
BLACK
6
CONTINUOUS
10
35.694
20
-10.2881
11
35.5702
21
-10.4738
0
LINE
8
BLACK
6
CONTINUOUS
10
35.5702
20
-10.4738
11
35.4464
21
-10.5976
0
LINE
8
BLACK
6
CONTINUOUS
10
35.4464
20
-10.5976
11
35.3226
21
-10.6595
0
LINE
8
BLACK
6
CONTINUOUS
10
85.3226
20
-10.4119
11
85.3845
21
-10.35
0
LINE
8
BLACK
6
CONTINUOUS
10
85.3845
20
-10.35
11
85.5083
21
-10.2881
0
LINE
8
BLACK
6
CONTINUOUS
10
85.5083
20
-10.2881
11
85.8179
21
-10.2881
0
LINE
8
BLACK
6
CONTINUOUS
10
85.8179
20
-10.2881
11
85.9417
21
-10.35
0
LINE
8
BLACK
6
CONTINUOUS
10
85.9417
20
-10.35
11
86.0036
21
-10.4119
0
LINE
8
BLACK
6
CONTINUOUS
10
86.0036
20
-10.4119
11
86.0655
21
-10.5357
0
LINE
8
BLACK
6
CONTINUOUS
10
86.0655
20
-10.5357
11
86.0655
21
-10.6595
0
LINE
8
BLACK
6
CONTINUOUS
10
86.0655
20
-10.6595
11
86.0036
21
-10.8452
0
LINE
8
BLACK
6
CONTINUOUS
10
86.0036
20
-10.8452
11
85.2607
21
-11.5881
0
LINE
8
BLACK
6
CONTINUOUS
10
85.2607
20
-11.5881
11
86.0655
21
-11.5881
0
LINE
8
BLACK
6
CONTINUOUS
10
135.261
20
-10.2881
11
136.065
21
-10.2881
0
LINE
8
BLACK
6
CONTINUOUS
10
136.065
20
-10.2881
11
135.632
21
-10.7833
0
LINE
8
BLACK
6
CONTINUOUS
10
135.632
20
-10.7833
11
135.818
21
-10.7833
0
LINE
8
BLACK
6
CONTINUOUS
10
135.818
20
-10.7833
11
135.942
21
-10.8452
0
LINE
8
BLACK
6
CONTINUOUS
10
135.942
20
-10.8452
11
136.004
21
-10.9071
0
LINE
8
BLACK
6
CONTINUOUS
10
136.004
20
-10.9071
11
136.065
21
-11.031
0
LINE
8
BLACK
6
CONTINUOUS
10
136.065
20
-11.031
11
136.065
21
-11.3405
0
LINE
8
BLACK
6
CONTINUOUS
10
136.065
20
-11.3405
11
136.004
21
-11.4643
0
LINE
8
BLACK
6
CONTINUOUS
10
136.004
20
-11.4643
11
135.942
21
-11.5262
0
LINE
8
BLACK
6
CONTINUOUS
10
135.942
20
-11.5262
11
135.818
21
-11.5881
0
LINE
8
BLACK
6
CONTINUOUS
10
135.818
20
-11.5881
11
135.446
21
-11.5881
0
LINE
8
BLACK
6
CONTINUOUS
10
135.446
20
-11.5881
11
135.323
21
-11.5262
0
LINE
8
BLACK
6
CONTINUOUS
10
135.323
20
-11.5262
11
135.261
21
-11.4643
0
LINE
8
BLACK
6
CONTINUOUS
10
185.942
20
-10.7214
11
185.942
21
-11.5881
0
LINE
8
BLACK
6
CONTINUOUS
10
185.632
20
-10.2262
11
185.323
21
-11.1548
0
LINE
8
BLACK
6
CONTINUOUS
10
185.323
20
-11.1548
11
186.127
21
-11.1548
0
LINE
8
BLACK
6
CONTINUOUS
10
236.004
20
-10.2881
11
235.385
21
-10.2881
0
LINE
8
BLACK
6
CONTINUOUS
10
235.385
20
-10.2881
11
235.323
21
-10.9071
0
LINE
8
BLACK
6
CONTINUOUS
10
235.323
20
-10.9071
11
235.385
21
-10.8452
0
LINE
8
BLACK
6
CONTINUOUS
10
235.385
20
-10.8452
11
235.508
21
-10.7833
0
LINE
8
BLACK
6
CONTINUOUS
10
235.508
20
-10.7833
11
235.818
21
-10.7833
0
LINE
8
BLACK
6
CONTINUOUS
10
235.818
20
-10.7833
11
235.942
21
-10.8452
0
LINE
8
BLACK
6
CONTINUOUS
10
235.942
20
-10.8452
11
236.004
21
-10.9071
0
LINE
8
BLACK
6
CONTINUOUS
10
236.004
20
-10.9071
11
236.065
21
-11.031
0
LINE
8
BLACK
6
CONTINUOUS
10
236.065
20
-11.031
11
236.065
21
-11.3405
0
LINE
8
BLACK
6
CONTINUOUS
10
236.065
20
-11.3405
11
236.004
21
-11.4643
0
LINE
8
BLACK
6
CONTINUOUS
10
236.004
20
-11.4643
11
235.942
21
-11.5262
0
LINE
8
BLACK
6
CONTINUOUS
10
235.942
20
-11.5262
11
235.818
21
-11.5881
0
LINE
8
BLACK
6
CONTINUOUS
10
235.818
20
-11.5881
11
235.508
21
-11.5881
0
LINE
8
BLACK
6
CONTINUOUS
10
235.508
20
-11.5881
11
235.385
21
-11.5262
0
LINE
8
BLACK
6
CONTINUOUS
10
235.385
20
-11.5262
11
235.323
21
-11.4643
0
LINE
8
BLACK
6
CONTINUOUS
10
285.942
20
-10.2881
11
285.694
21
-10.2881
0
LINE
8
BLACK
6
CONTINUOUS
10
285.694
20
-10.2881
11
285.57
21
-10.35
0
LINE
8
BLACK
6
CONTINUOUS
10
285.57
20
-10.35
11
285.508
21
-10.4119
0
LINE
8
BLACK
6
CONTINUOUS
10
285.508
20
-10.4119
11
285.385
21
-10.5976
0
LINE
8
BLACK
6
CONTINUOUS
10
285.385
20
-10.5976
11
285.323
21
-10.8452
0
LINE
8
BLACK
6
CONTINUOUS
10
285.323
20
-10.8452
11
285.323
21
-11.3405
0
LINE
8
BLACK
6
CONTINUOUS
10
285.323
20
-11.3405
11
285.385
21
-11.4643
0
LINE
8
BLACK
6
CONTINUOUS
10
285.385
20
-11.4643
11
285.446
21
-11.5262
0
LINE
8
BLACK
6
CONTINUOUS
10
285.446
20
-11.5262
11
285.57
21
-11.5881
0
LINE
8
BLACK
6
CONTINUOUS
10
285.57
20
-11.5881
11
285.818
21
-11.5881
0
LINE
8
BLACK
6
CONTINUOUS
10
285.818
20
-11.5881
11
285.942
21
-11.5262
0
LINE
8
BLACK
6
CONTINUOUS
10
285.942
20
-11.5262
11
286.004
21
-11.4643
0
LINE
8
BLACK
6
CONTINUOUS
10
286.004
20
-11.4643
11
286.065
21
-11.3405
0
LINE
8
BLACK
6
CONTINUOUS
10
286.065
20
-11.3405
11
286.065
21
-11.031
0
LINE
8
BLACK
6
CONTINUOUS
10
286.065
20
-11.031
11
286.004
21
-10.9071
0
LINE
8
BLACK
6
CONTINUOUS
10
286.004
20
-10.9071
11
285.942
21
-10.8452
0
LINE
8
BLACK
6
CONTINUOUS
10
285.942
20
-10.8452
11
285.818
21
-10.7833
0
LINE
8
BLACK
6
CONTINUOUS
10
285.818
20
-10.7833
11
285.57
21
-10.7833
0
LINE
8
BLACK
6
CONTINUOUS
10
285.57
20
-10.7833
11
285.446
21
-10.8452
0
LINE
8
BLACK
6
CONTINUOUS
10
285.446
20
-10.8452
11
285.385
21
-10.9071
0
LINE
8
BLACK
6
CONTINUOUS
10
285.385
20
-10.9071
11
285.323
21
-11.031
0
LINE
8
BLACK
6
CONTINUOUS
10
60
20
-198.007
11
60
21
-200.007
0
LINE
8
BLACK
6
CONTINUOUS
10
110
20
-198.007
11
110
21
-200.007
0
LINE
8
BLACK
6
CONTINUOUS
10
160
20
-198.007
11
160
21
-200.007
0
LINE
8
BLACK
6
CONTINUOUS
10
210
20
-198.007
11
210
21
-200.007
0
LINE
8
BLACK
6
CONTINUOUS
10
260
20
-198.007
11
260
21
-200.007
0
LINE
8
BLACK
6
CONTINUOUS
10
36.0655
20
-199.595
11
35.3226
21
-199.595
0
LINE
8
BLACK
6
CONTINUOUS
10
35.694
20
-199.595
11
35.694
21
-198.295
0
LINE
8
BLACK
6
CONTINUOUS
10
35.694
20
-198.295
11
35.5702
21
-198.481
0
LINE
8
BLACK
6
CONTINUOUS
10
35.5702
20
-198.481
11
35.4464
21
-198.605
0
LINE
8
BLACK
6
CONTINUOUS
10
35.4464
20
-198.605
11
35.3226
21
-198.667
0
LINE
8
BLACK
6
CONTINUOUS
10
85.3226
20
-198.419
11
85.3845
21
-198.357
0
LINE
8
BLACK
6
CONTINUOUS
10
85.3845
20
-198.357
11
85.5083
21
-198.295
0
LINE
8
BLACK
6
CONTINUOUS
10
85.5083
20
-198.295
11
85.8179
21
-198.295
0
LINE
8
BLACK
6
CONTINUOUS
10
85.8179
20
-198.295
11
85.9417
21
-198.357
0
LINE
8
BLACK
6
CONTINUOUS
10
85.9417
20
-198.357
11
86.0036
21
-198.419
0
LINE
8
BLACK
6
CONTINUOUS
10
86.0036
20
-198.419
11
86.0655
21
-198.543
0
LINE
8
BLACK
6
CONTINUOUS
10
86.0655
20
-198.543
11
86.0655
21
-198.667
0
LINE
8
BLACK
6
CONTINUOUS
10
86.0655
20
-198.667
11
86.0036
21
-198.852
0
LINE
8
BLACK
6
CONTINUOUS
10
86.0036
20
-198.852
11
85.2607
21
-199.595
0
LINE
8
BLACK
6
CONTINUOUS
10
85.2607
20
-199.595
11
86.0655
21
-199.595
0
LINE
8
BLACK
6
CONTINUOUS
10
135.261
20
-198.295
11
136.065
21
-198.295
0
LINE
8
BLACK
6
CONTINUOUS
10
136.065
20
-198.295
11
135.632
21
-198.791
0
LINE
8
BLACK
6
CONTINUOUS
10
135.632
20
-198.791
11
135.818
21
-198.791
0
LINE
8
BLACK
6
CONTINUOUS
10
135.818
20
-198.791
11
135.942
21
-198.852
0
LINE
8
BLACK
6
CONTINUOUS
10
135.942
20
-198.852
11
136.004
21
-198.914
0
LINE
8
BLACK
6
CONTINUOUS
10
136.004
20
-198.914
11
136.065
21
-199.038
0
LINE
8
BLACK
6
CONTINUOUS
10
136.065
20
-199.038
11
136.065
21
-199.348
0
LINE
8
BLACK
6
CONTINUOUS
10
136.065
20
-199.348
11
136.004
21
-199.471
0
LINE
8
BLACK
6
CONTINUOUS
10
136.004
20
-199.471
11
135.942
21
-199.533
0
LINE
8
BLACK
6
CONTINUOUS
10
135.942
20
-199.533
11
135.818
21
-199.595
0
LINE
8
BLACK
6
CONTINUOUS
10
135.818
20
-199.595
11
135.446
21
-199.595
0
LINE
8
BLACK
6
CONTINUOUS
10
135.446
20
-199.595
11
135.323
21
-199.533
0
LINE
8
BLACK
6
CONTINUOUS
10
135.323
20
-199.533
11
135.261
21
-199.471
0
LINE
8
BLACK
6
CONTINUOUS
10
185.942
20
-198.729
11
185.942
21
-199.595
0
LINE
8
BLACK
6
CONTINUOUS
10
185.632
20
-198.233
11
185.323
21
-199.162
0
LINE
8
BLACK
6
CONTINUOUS
10
185.323
20
-199.162
11
186.127
21
-199.162
0
LINE
8
BLACK
6
CONTINUOUS
10
236.004
20
-198.295
11
235.385
21
-198.295
0
LINE
8
BLACK
6
CONTINUOUS
10
235.385
20
-198.295
11
235.323
21
-198.914
0
LINE
8
BLACK
6
CONTINUOUS
10
235.323
20
-198.914
11
235.385
21
-198.852
0
LINE
8
BLACK
6
CONTINUOUS
10
235.385
20
-198.852
11
235.508
21
-198.791
0
LINE
8
BLACK
6
CONTINUOUS
10
235.508
20
-198.791
11
235.818
21
-198.791
0
LINE
8
BLACK
6
CONTINUOUS
10
235.818
20
-198.791
11
235.942
21
-198.852
0
LINE
8
BLACK
6
CONTINUOUS
10
235.942
20
-198.852
11
236.004
21
-198.914
0
LINE
8
BLACK
6
CONTINUOUS
10
236.004
20
-198.914
11
236.065
21
-199.038
0
LINE
8
BLACK
6
CONTINUOUS
10
236.065
20
-199.038
11
236.065
21
-199.348
0
LINE
8
BLACK
6
CONTINUOUS
10
236.065
20
-199.348
11
236.004
21
-199.471
0
LINE
8
BLACK
6
CONTINUOUS
10
236.004
20
-199.471
11
235.942
21
-199.533
0
LINE
8
BLACK
6
CONTINUOUS
10
235.942
20
-199.533
11
235.818
21
-199.595
0
LINE
8
BLACK
6
CONTINUOUS
10
235.818
20
-199.595
11
235.508
21
-199.595
0
LINE
8
BLACK
6
CONTINUOUS
10
235.508
20
-199.595
11
235.385
21
-199.533
0
LINE
8
BLACK
6
CONTINUOUS
10
235.385
20
-199.533
11
235.323
21
-199.471
0
LINE
8
BLACK
6
CONTINUOUS
10
285.942
20
-198.295
11
285.694
21
-198.295
0
LINE
8
BLACK
6
CONTINUOUS
10
285.694
20
-198.295
11
285.57
21
-198.357
0
LINE
8
BLACK
6
CONTINUOUS
10
285.57
20
-198.357
11
285.508
21
-198.419
0
LINE
8
BLACK
6
CONTINUOUS
10
285.508
20
-198.419
11
285.385
21
-198.605
0
LINE
8
BLACK
6
CONTINUOUS
10
285.385
20
-198.605
11
285.323
21
-198.852
0
LINE
8
BLACK
6
CONTINUOUS
10
285.323
20
-198.852
11
285.323
21
-199.348
0
LINE
8
BLACK
6
CONTINUOUS
10
285.323
20
-199.348
11
285.385
21
-199.471
0
LINE
8
BLACK
6
CONTINUOUS
10
285.385
20
-199.471
11
285.446
21
-199.533
0
LINE
8
BLACK
6
CONTINUOUS
10
285.446
20
-199.533
11
285.57
21
-199.595
0
LINE
8
BLACK
6
CONTINUOUS
10
285.57
20
-199.595
11
285.818
21
-199.595
0
LINE
8
BLACK
6
CONTINUOUS
10
285.818
20
-199.595
11
285.942
21
-199.533
0
LINE
8
BLACK
6
CONTINUOUS
10
285.942
20
-199.533
11
286.004
21
-199.471
0
LINE
8
BLACK
6
CONTINUOUS
10
286.004
20
-199.471
11
286.065
21
-199.348
0
LINE
8
BLACK
6
CONTINUOUS
10
286.065
20
-199.348
11
286.065
21
-199.038
0
LINE
8
BLACK
6
CONTINUOUS
10
286.065
20
-199.038
11
286.004
21
-198.914
0
LINE
8
BLACK
6
CONTINUOUS
10
286.004
20
-198.914
11
285.942
21
-198.852
0
LINE
8
BLACK
6
CONTINUOUS
10
285.942
20
-198.852
11
285.818
21
-198.791
0
LINE
8
BLACK
6
CONTINUOUS
10
285.818
20
-198.791
11
285.57
21
-198.791
0
LINE
8
BLACK
6
CONTINUOUS
10
285.57
20
-198.791
11
285.446
21
-198.852
0
LINE
8
BLACK
6
CONTINUOUS
10
285.446
20
-198.852
11
285.385
21
-198.914
0
LINE
8
BLACK
6
CONTINUOUS
10
285.385
20
-198.914
11
285.323
21
-199.038
0
LINE
8
BLACK
6
CONTINUOUS
10
10
20
-60
11
12
21
-60
0
LINE
8
BLACK
6
CONTINUOUS
10
10
20
-110
11
12
21
-110
0
LINE
8
BLACK
6
CONTINUOUS
10
10
20
-160
11
12
21
-160
0
LINE
8
BLACK
6
CONTINUOUS
10
10.6905
20
-35.2167
11
11.3095
21
-35.2167
0
LINE
8
BLACK
6
CONTINUOUS
10
10.5667
20
-35.5881
11
11
21
-34.2881
0
LINE
8
BLACK
6
CONTINUOUS
10
11
20
-34.2881
11
11.4333
21
-35.5881
0
LINE
8
BLACK
6
CONTINUOUS
10
11.0929
20
-84.9071
11
11.2786
21
-84.969
0
LINE
8
BLACK
6
CONTINUOUS
10
11.2786
20
-84.969
11
11.3405
21
-85.031
0
LINE
8
BLACK
6
CONTINUOUS
10
11.3405
20
-85.031
11
11.4024
21
-85.1548
0
LINE
8
BLACK
6
CONTINUOUS
10
11.4024
20
-85.1548
11
11.4024
21
-85.3405
0
LINE
8
BLACK
6
CONTINUOUS
10
11.4024
20
-85.3405
11
11.3405
21
-85.4643
0
LINE
8
BLACK
6
CONTINUOUS
10
11.3405
20
-85.4643
11
11.2786
21
-85.5262
0
LINE
8
BLACK
6
CONTINUOUS
10
11.2786
20
-85.5262
11
11.1548
21
-85.5881
0
LINE
8
BLACK
6
CONTINUOUS
10
11.1548
20
-85.5881
11
10.6595
21
-85.5881
0
LINE
8
BLACK
6
CONTINUOUS
10
10.6595
20
-85.5881
11
10.6595
21
-84.2881
0
LINE
8
BLACK
6
CONTINUOUS
10
10.6595
20
-84.2881
11
11.0929
21
-84.2881
0
LINE
8
BLACK
6
CONTINUOUS
10
11.0929
20
-84.2881
11
11.2167
21
-84.35
0
LINE
8
BLACK
6
CONTINUOUS
10
11.2167
20
-84.35
11
11.2786
21
-84.4119
0
LINE
8
BLACK
6
CONTINUOUS
10
11.2786
20
-84.4119
11
11.3405
21
-84.5357
0
LINE
8
BLACK
6
CONTINUOUS
10
11.3405
20
-84.5357
11
11.3405
21
-84.6595
0
LINE
8
BLACK
6
CONTINUOUS
10
11.3405
20
-84.6595
11
11.2786
21
-84.7833
0
LINE
8
BLACK
6
CONTINUOUS
10
11.2786
20
-84.7833
11
11.2167
21
-84.8452
0
LINE
8
BLACK
6
CONTINUOUS
10
11.2167
20
-84.8452
11
11.0929
21
-84.9071
0
LINE
8
BLACK
6
CONTINUOUS
10
11.0929
20
-84.9071
11
10.6595
21
-84.9071
0
LINE
8
BLACK
6
CONTINUOUS
10
11.4024
20
-135.464
11
11.3405
21
-135.526
0
LINE
8
BLACK
6
CONTINUOUS
10
11.3405
20
-135.526
11
11.1548
21
-135.588
0
LINE
8
BLACK
6
CONTINUOUS
10
11.1548
20
-135.588
11
11.031
21
-135.588
0
LINE
8
BLACK
6
CONTINUOUS
10
11.031
20
-135.588
11
10.8452
21
-135.526
0
LINE
8
BLACK
6
CONTINUOUS
10
10.8452
20
-135.526
11
10.7214
21
-135.402
0
LINE
8
BLACK
6
CONTINUOUS
10
10.7214
20
-135.402
11
10.6595
21
-135.279
0
LINE
8
BLACK
6
CONTINUOUS
10
10.6595
20
-135.279
11
10.5976
21
-135.031
0
LINE
8
BLACK
6
CONTINUOUS
10
10.5976
20
-135.031
11
10.5976
21
-134.845
0
LINE
8
BLACK
6
CONTINUOUS
10
10.5976
20
-134.845
11
10.6595
21
-134.598
0
LINE
8
BLACK
6
CONTINUOUS
10
10.6595
20
-134.598
11
10.7214
21
-134.474
0
LINE
8
BLACK
6
CONTINUOUS
10
10.7214
20
-134.474
11
10.8452
21
-134.35
0
LINE
8
BLACK
6
CONTINUOUS
10
10.8452
20
-134.35
11
11.031
21
-134.288
0
LINE
8
BLACK
6
CONTINUOUS
10
11.031
20
-134.288
11
11.1548
21
-134.288
0
LINE
8
BLACK
6
CONTINUOUS
10
11.1548
20
-134.288
11
11.3405
21
-134.35
0
LINE
8
BLACK
6
CONTINUOUS
10
11.3405
20
-134.35
11
11.4024
21
-134.412
0
LINE
8
BLACK
6
CONTINUOUS
10
10.6595
20
-185.588
11
10.6595
21
-184.288
0
LINE
8
BLACK
6
CONTINUOUS
10
10.6595
20
-184.288
11
10.969
21
-184.288
0
LINE
8
BLACK
6
CONTINUOUS
10
10.969
20
-184.288
11
11.1548
21
-184.35
0
LINE
8
BLACK
6
CONTINUOUS
10
11.1548
20
-184.35
11
11.2786
21
-184.474
0
LINE
8
BLACK
6
CONTINUOUS
10
11.2786
20
-184.474
11
11.3405
21
-184.598
0
LINE
8
BLACK
6
CONTINUOUS
10
11.3405
20
-184.598
11
11.4024
21
-184.845
0
LINE
8
BLACK
6
CONTINUOUS
10
11.4024
20
-184.845
11
11.4024
21
-185.031
0
LINE
8
BLACK
6
CONTINUOUS
10
11.4024
20
-185.031
11
11.3405
21
-185.279
0
LINE
8
BLACK
6
CONTINUOUS
10
11.3405
20
-185.279
11
11.2786
21
-185.402
0
LINE
8
BLACK
6
CONTINUOUS
10
11.2786
20
-185.402
11
11.1548
21
-185.526
0
LINE
8
BLACK
6
CONTINUOUS
10
11.1548
20
-185.526
11
10.969
21
-185.588
0
LINE
8
BLACK
6
CONTINUOUS
10
10.969
20
-185.588
11
10.6595
21
-185.588
0
LINE
8
BLACK
6
CONTINUOUS
10
287.002
20
-60
11
285.002
21
-60
0
LINE
8
BLACK
6
CONTINUOUS
10
287.002
20
-110
11
285.002
21
-110
0
LINE
8
BLACK
6
CONTINUOUS
10
287.002
20
-160
11
285.002
21
-160
0
LINE
8
BLACK
6
CONTINUOUS
10
285.693
20
-35.2167
11
286.312
21
-35.2167
0
LINE
8
BLACK
6
CONTINUOUS
10
285.569
20
-35.5881
11
286.002
21
-34.2881
0
LINE
8
BLACK
6
CONTINUOUS
10
286.002
20
-34.2881
11
286.436
21
-35.5881
0
LINE
8
BLACK
6
CONTINUOUS
10
286.095
20
-84.9071
11
286.281
21
-84.969
0
LINE
8
BLACK
6
CONTINUOUS
10
286.281
20
-84.969
11
286.343
21
-85.031
0
LINE
8
BLACK
6
CONTINUOUS
10
286.343
20
-85.031
11
286.405
21
-85.1548
0
LINE
8
BLACK
6
CONTINUOUS
10
286.405
20
-85.1548
11
286.405
21
-85.3405
0
LINE
8
BLACK
6
CONTINUOUS
10
286.405
20
-85.3405
11
286.343
21
-85.4643
0
LINE
8
BLACK
6
CONTINUOUS
10
286.343
20
-85.4643
11
286.281
21
-85.5262
0
LINE
8
BLACK
6
CONTINUOUS
10
286.281
20
-85.5262
11
286.157
21
-85.5881
0
LINE
8
BLACK
6
CONTINUOUS
10
286.157
20
-85.5881
11
285.662
21
-85.5881
0
LINE
8
BLACK
6
CONTINUOUS
10
285.662
20
-85.5881
11
285.662
21
-84.2881
0
LINE
8
BLACK
6
CONTINUOUS
10
285.662
20
-84.2881
11
286.095
21
-84.2881
0
LINE
8
BLACK
6
CONTINUOUS
10
286.095
20
-84.2881
11
286.219
21
-84.35
0
LINE
8
BLACK
6
CONTINUOUS
10
286.219
20
-84.35
11
286.281
21
-84.4119
0
LINE
8
BLACK
6
CONTINUOUS
10
286.281
20
-84.4119
11
286.343
21
-84.5357
0
LINE
8
BLACK
6
CONTINUOUS
10
286.343
20
-84.5357
11
286.343
21
-84.6595
0
LINE
8
BLACK
6
CONTINUOUS
10
286.343
20
-84.6595
11
286.281
21
-84.7833
0
LINE
8
BLACK
6
CONTINUOUS
10
286.281
20
-84.7833
11
286.219
21
-84.8452
0
LINE
8
BLACK
6
CONTINUOUS
10
286.219
20
-84.8452
11
286.095
21
-84.9071
0
LINE
8
BLACK
6
CONTINUOUS
10
286.095
20
-84.9071
11
285.662
21
-84.9071
0
LINE
8
BLACK
6
CONTINUOUS
10
286.405
20
-135.464
11
286.343
21
-135.526
0
LINE
8
BLACK
6
CONTINUOUS
10
286.343
20
-135.526
11
286.157
21
-135.588
0
LINE
8
BLACK
6
CONTINUOUS
10
286.157
20
-135.588
11
286.033
21
-135.588
0
LINE
8
BLACK
6
CONTINUOUS
10
286.033
20
-135.588
11
285.847
21
-135.526
0
LINE
8
BLACK
6
CONTINUOUS
10
285.847
20
-135.526
11
285.724
21
-135.402
0
LINE
8
BLACK
6
CONTINUOUS
10
285.724
20
-135.402
11
285.662
21
-135.279
0
LINE
8
BLACK
6
CONTINUOUS
10
285.662
20
-135.279
11
285.6
21
-135.031
0
LINE
8
BLACK
6
CONTINUOUS
10
285.6
20
-135.031
11
285.6
21
-134.845
0
LINE
8
BLACK
6
CONTINUOUS
10
285.6
20
-134.845
11
285.662
21
-134.598
0
LINE
8
BLACK
6
CONTINUOUS
10
285.662
20
-134.598
11
285.724
21
-134.474
0
LINE
8
BLACK
6
CONTINUOUS
10
285.724
20
-134.474
11
285.847
21
-134.35
0
LINE
8
BLACK
6
CONTINUOUS
10
285.847
20
-134.35
11
286.033
21
-134.288
0
LINE
8
BLACK
6
CONTINUOUS
10
286.033
20
-134.288
11
286.157
21
-134.288
0
LINE
8
BLACK
6
CONTINUOUS
10
286.157
20
-134.288
11
286.343
21
-134.35
0
LINE
8
BLACK
6
CONTINUOUS
10
286.343
20
-134.35
11
286.405
21
-134.412
0
LINE
8
BLACK
6
CONTINUOUS
10
285.662
20
-185.588
11
285.662
21
-184.288
0
LINE
8
BLACK
6
CONTINUOUS
10
285.662
20
-184.288
11
285.971
21
-184.288
0
LINE
8
BLACK
6
CONTINUOUS
10
285.971
20
-184.288
11
286.157
21
-184.35
0
LINE
8
BLACK
6
CONTINUOUS
10
286.157
20
-184.35
11
286.281
21
-184.474
0
LINE
8
BLACK
6
CONTINUOUS
10
286.281
20
-184.474
11
286.343
21
-184.598
0
LINE
8
BLACK
6
CONTINUOUS
10
286.343
20
-184.598
11
286.405
21
-184.845
0
LINE
8
BLACK
6
CONTINUOUS
10
286.405
20
-184.845
11
286.405
21
-185.031
0
LINE
8
BLACK
6
CONTINUOUS
10
286.405
20
-185.031
11
286.343
21
-185.279
0
LINE
8
BLACK
6
CONTINUOUS
10
286.343
20
-185.279
11
286.281
21
-185.402
0
LINE
8
BLACK
6
CONTINUOUS
10
286.281
20
-185.402
11
286.157
21
-185.526
0
LINE
8
BLACK
6
CONTINUOUS
10
286.157
20
-185.526
11
285.971
21
-185.588
0
LINE
8
BLACK
6
CONTINUOUS
10
285.971
20
-185.588
11
285.662
21
-185.588
0
LINE
8
BLACK
6
CONTINUOUS
10
200.434
20
-193.786
11
200.434
21
-192.286
0
LINE
8
BLACK
6
CONTINUOUS
10
200.434
20
-192.286
11
200.791
21
-192.286
0
LINE
8
BLACK
6
CONTINUOUS
10
200.791
20
-192.286
11
201.006
21
-192.357
0
LINE
8
BLACK
6
CONTINUOUS
10
201.006
20
-192.357
11
201.149
21
-192.5
0
LINE
8
BLACK
6
CONTINUOUS
10
201.149
20
-192.5
11
201.22
21
-192.643
0
LINE
8
BLACK
6
CONTINUOUS
10
201.22
20
-192.643
11
201.291
21
-192.929
0
LINE
8
BLACK
6
CONTINUOUS
10
201.291
20
-192.929
11
201.291
21
-193.143
0
LINE
8
BLACK
6
CONTINUOUS
10
201.291
20
-193.143
11
201.22
21
-193.429
0
LINE
8
BLACK
6
CONTINUOUS
10
201.22
20
-193.429
11
201.149
21
-193.571
0
LINE
8
BLACK
6
CONTINUOUS
10
201.149
20
-193.571
11
201.006
21
-193.714
0
LINE
8
BLACK
6
CONTINUOUS
10
201.006
20
-193.714
11
200.791
21
-193.786
0
LINE
8
BLACK
6
CONTINUOUS
10
200.791
20
-193.786
11
200.434
21
-193.786
0
LINE
8
BLACK
6
CONTINUOUS
10
202.577
20
-193.786
11
202.577
21
-193
0
LINE
8
BLACK
6
CONTINUOUS
10
202.577
20
-193
11
202.506
21
-192.857
0
LINE
8
BLACK
6
CONTINUOUS
10
202.506
20
-192.857
11
202.363
21
-192.786
0
LINE
8
BLACK
6
CONTINUOUS
10
202.363
20
-192.786
11
202.077
21
-192.786
0
LINE
8
BLACK
6
CONTINUOUS
10
202.077
20
-192.786
11
201.934
21
-192.857
0
LINE
8
BLACK
6
CONTINUOUS
10
202.577
20
-193.714
11
202.434
21
-193.786
0
LINE
8
BLACK
6
CONTINUOUS
10
202.434
20
-193.786
11
202.077
21
-193.786
0
LINE
8
BLACK
6
CONTINUOUS
10
202.077
20
-193.786
11
201.934
21
-193.714
0
LINE
8
BLACK
6
CONTINUOUS
10
201.934
20
-193.714
11
201.863
21
-193.571
0
LINE
8
BLACK
6
CONTINUOUS
10
201.863
20
-193.571
11
201.863
21
-193.429
0
LINE
8
BLACK
6
CONTINUOUS
10
201.863
20
-193.429
11
201.934
21
-193.286
0
LINE
8
BLACK
6
CONTINUOUS
10
201.934
20
-193.286
11
202.077
21
-193.214
0
LINE
8
BLACK
6
CONTINUOUS
10
202.077
20
-193.214
11
202.434
21
-193.214
0
LINE
8
BLACK
6
CONTINUOUS
10
202.434
20
-193.214
11
202.577
21
-193.143
0
LINE
8
BLACK
6
CONTINUOUS
10
203.077
20
-192.786
11
203.649
21
-192.786
0
LINE
8
BLACK
6
CONTINUOUS
10
203.291
20
-192.286
11
203.291
21
-193.571
0
LINE
8
BLACK
6
CONTINUOUS
10
203.291
20
-193.571
11
203.363
21
-193.714
0
LINE
8
BLACK
6
CONTINUOUS
10
203.363
20
-193.714
11
203.506
21
-193.786
0
LINE
8
BLACK
6
CONTINUOUS
10
203.506
20
-193.786
11
203.649
21
-193.786
0
LINE
8
BLACK
6
CONTINUOUS
10
204.72
20
-193.714
11
204.577
21
-193.786
0
LINE
8
BLACK
6
CONTINUOUS
10
204.577
20
-193.786
11
204.291
21
-193.786
0
LINE
8
BLACK
6
CONTINUOUS
10
204.291
20
-193.786
11
204.149
21
-193.714
0
LINE
8
BLACK
6
CONTINUOUS
10
204.149
20
-193.714
11
204.077
21
-193.571
0
LINE
8
BLACK
6
CONTINUOUS
10
204.077
20
-193.571
11
204.077
21
-193
0
LINE
8
BLACK
6
CONTINUOUS
10
204.077
20
-193
11
204.149
21
-192.857
0
LINE
8
BLACK
6
CONTINUOUS
10
204.149
20
-192.857
11
204.291
21
-192.786
0
LINE
8
BLACK
6
CONTINUOUS
10
204.291
20
-192.786
11
204.577
21
-192.786
0
LINE
8
BLACK
6
CONTINUOUS
10
204.577
20
-192.786
11
204.72
21
-192.857
0
LINE
8
BLACK
6
CONTINUOUS
10
204.72
20
-192.857
11
204.791
21
-193
0
LINE
8
BLACK
6
CONTINUOUS
10
204.791
20
-193
11
204.791
21
-193.143
0
LINE
8
BLACK
6
CONTINUOUS
10
204.791
20
-193.143
11
204.077
21
-193.286
0
LINE
8
BLACK
6
CONTINUOUS
10
205.434
20
-193.643
11
205.506
21
-193.714
0
LINE
8
BLACK
6
CONTINUOUS
10
205.506
20
-193.714
11
205.434
21
-193.786
0
LINE
8
BLACK
6
CONTINUOUS
10
205.434
20
-193.786
11
205.363
21
-193.714
0
LINE
8
BLACK
6
CONTINUOUS
10
205.363
20
-193.714
11
205.434
21
-193.643
0
LINE
8
BLACK
6
CONTINUOUS
10
205.434
20
-193.643
11
205.434
21
-193.786
0
LINE
8
BLACK
6
CONTINUOUS
10
205.434
20
-192.857
11
205.506
21
-192.929
0
LINE
8
BLACK
6
CONTINUOUS
10
205.506
20
-192.929
11
205.434
21
-193
0
LINE
8
BLACK
6
CONTINUOUS
10
205.434
20
-193
11
205.363
21
-192.929
0
LINE
8
BLACK
6
CONTINUOUS
10
205.363
20
-192.929
11
205.434
21
-192.857
0
LINE
8
BLACK
6
CONTINUOUS
10
205.434
20
-192.857
11
205.434
21
-193
0
LINE
8
BLACK
6
CONTINUOUS
10
177.002
20
-194.507
11
285.002
21
-194.507
0
LINE
8
BLACK
6
CONTINUOUS
10
178.434
20
-196.586
11
178.434
21
-195.086
0
LINE
8
BLACK
6
CONTINUOUS
10
179.291
20
-196.586
11
178.649
21
-195.729
0
LINE
8
BLACK
6
CONTINUOUS
10
179.291
20
-195.086
11
178.434
21
-195.943
0
LINE
8
BLACK
6
CONTINUOUS
10
179.934
20
-196.586
11
179.934
21
-195.586
0
LINE
8
BLACK
6
CONTINUOUS
10
179.934
20
-195.086
11
179.863
21
-195.157
0
LINE
8
BLACK
6
CONTINUOUS
10
179.863
20
-195.157
11
179.934
21
-195.229
0
LINE
8
BLACK
6
CONTINUOUS
10
179.934
20
-195.229
11
180.006
21
-195.157
0
LINE
8
BLACK
6
CONTINUOUS
10
180.006
20
-195.157
11
179.934
21
-195.086
0
LINE
8
BLACK
6
CONTINUOUS
10
179.934
20
-195.086
11
179.934
21
-195.229
0
LINE
8
BLACK
6
CONTINUOUS
10
181.506
20
-196.443
11
181.434
21
-196.514
0
LINE
8
BLACK
6
CONTINUOUS
10
181.434
20
-196.514
11
181.22
21
-196.586
0
LINE
8
BLACK
6
CONTINUOUS
10
181.22
20
-196.586
11
181.077
21
-196.586
0
LINE
8
BLACK
6
CONTINUOUS
10
181.077
20
-196.586
11
180.863
21
-196.514
0
LINE
8
BLACK
6
CONTINUOUS
10
180.863
20
-196.514
11
180.72
21
-196.371
0
LINE
8
BLACK
6
CONTINUOUS
10
180.72
20
-196.371
11
180.649
21
-196.229
0
LINE
8
BLACK
6
CONTINUOUS
10
180.649
20
-196.229
11
180.577
21
-195.943
0
LINE
8
BLACK
6
CONTINUOUS
10
180.577
20
-195.943
11
180.577
21
-195.729
0
LINE
8
BLACK
6
CONTINUOUS
10
180.577
20
-195.729
11
180.649
21
-195.443
0
LINE
8
BLACK
6
CONTINUOUS
10
180.649
20
-195.443
11
180.72
21
-195.3
0
LINE
8
BLACK
6
CONTINUOUS
10
180.72
20
-195.3
11
180.863
21
-195.157
0
LINE
8
BLACK
6
CONTINUOUS
10
180.863
20
-195.157
11
181.077
21
-195.086
0
LINE
8
BLACK
6
CONTINUOUS
10
181.077
20
-195.086
11
181.22
21
-195.086
0
LINE
8
BLACK
6
CONTINUOUS
10
181.22
20
-195.086
11
181.434
21
-195.157
0
LINE
8
BLACK
6
CONTINUOUS
10
181.434
20
-195.157
11
181.506
21
-195.229
0
LINE
8
BLACK
6
CONTINUOUS
10
182.791
20
-196.586
11
182.791
21
-195.8
0
LINE
8
BLACK
6
CONTINUOUS
10
182.791
20
-195.8
11
182.72
21
-195.657
0
LINE
8
BLACK
6
CONTINUOUS
10
182.72
20
-195.657
11
182.577
21
-195.586
0
LINE
8
BLACK
6
CONTINUOUS
10
182.577
20
-195.586
11
182.291
21
-195.586
0
LINE
8
BLACK
6
CONTINUOUS
10
182.291
20
-195.586
11
182.149
21
-195.657
0
LINE
8
BLACK
6
CONTINUOUS
10
182.791
20
-196.514
11
182.649
21
-196.586
0
LINE
8
BLACK
6
CONTINUOUS
10
182.649
20
-196.586
11
182.291
21
-196.586
0
LINE
8
BLACK
6
CONTINUOUS
10
182.291
20
-196.586
11
182.149
21
-196.514
0
LINE
8
BLACK
6
CONTINUOUS
10
182.149
20
-196.514
11
182.077
21
-196.371
0
LINE
8
BLACK
6
CONTINUOUS
10
182.077
20
-196.371
11
182.077
21
-196.229
0
LINE
8
BLACK
6
CONTINUOUS
10
182.077
20
-196.229
11
182.149
21
-196.086
0
LINE
8
BLACK
6
CONTINUOUS
10
182.149
20
-196.086
11
182.291
21
-196.014
0
LINE
8
BLACK
6
CONTINUOUS
10
182.291
20
-196.014
11
182.649
21
-196.014
0
LINE
8
BLACK
6
CONTINUOUS
10
182.649
20
-196.014
11
182.791
21
-195.943
0
LINE
8
BLACK
6
CONTINUOUS
10
184.149
20
-196.586
11
184.149
21
-195.086
0
LINE
8
BLACK
6
CONTINUOUS
10
184.149
20
-196.514
11
184.006
21
-196.586
0
LINE
8
BLACK
6
CONTINUOUS
10
184.006
20
-196.586
11
183.72
21
-196.586
0
LINE
8
BLACK
6
CONTINUOUS
10
183.72
20
-196.586
11
183.577
21
-196.514
0
LINE
8
BLACK
6
CONTINUOUS
10
183.577
20
-196.514
11
183.506
21
-196.443
0
LINE
8
BLACK
6
CONTINUOUS
10
183.506
20
-196.443
11
183.434
21
-196.3
0
LINE
8
BLACK
6
CONTINUOUS
10
183.434
20
-196.3
11
183.434
21
-195.871
0
LINE
8
BLACK
6
CONTINUOUS
10
183.434
20
-195.871
11
183.506
21
-195.729
0
LINE
8
BLACK
6
CONTINUOUS
10
183.506
20
-195.729
11
183.577
21
-195.657
0
LINE
8
BLACK
6
CONTINUOUS
10
183.577
20
-195.657
11
183.72
21
-195.586
0
LINE
8
BLACK
6
CONTINUOUS
10
183.72
20
-195.586
11
184.006
21
-195.586
0
LINE
8
BLACK
6
CONTINUOUS
10
184.006
20
-195.586
11
184.149
21
-195.657
0
LINE
8
BLACK
6
CONTINUOUS
10
186.006
20
-195.8
11
186.506
21
-195.8
0
LINE
8
BLACK
6
CONTINUOUS
10
186.72
20
-196.586
11
186.006
21
-196.586
0
LINE
8
BLACK
6
CONTINUOUS
10
186.006
20
-196.586
11
186.006
21
-195.086
0
LINE
8
BLACK
6
CONTINUOUS
10
186.006
20
-195.086
11
186.72
21
-195.086
0
LINE
8
BLACK
6
CONTINUOUS
10
187.363
20
-196.443
11
187.434
21
-196.514
0
LINE
8
BLACK
6
CONTINUOUS
10
187.434
20
-196.514
11
187.363
21
-196.586
0
LINE
8
BLACK
6
CONTINUOUS
10
187.363
20
-196.586
11
187.291
21
-196.514
0
LINE
8
BLACK
6
CONTINUOUS
10
187.291
20
-196.514
11
187.363
21
-196.443
0
LINE
8
BLACK
6
CONTINUOUS
10
187.363
20
-196.443
11
187.363
21
-196.586
0
LINE
8
BLACK
6
CONTINUOUS
10
188.077
20
-196.586
11
188.077
21
-195.086
0
LINE
8
BLACK
6
CONTINUOUS
10
188.077
20
-195.086
11
188.434
21
-195.086
0
LINE
8
BLACK
6
CONTINUOUS
10
188.434
20
-195.086
11
188.649
21
-195.157
0
LINE
8
BLACK
6
CONTINUOUS
10
188.649
20
-195.157
11
188.791
21
-195.3
0
LINE
8
BLACK
6
CONTINUOUS
10
188.791
20
-195.3
11
188.863
21
-195.443
0
LINE
8
BLACK
6
CONTINUOUS
10
188.863
20
-195.443
11
188.934
21
-195.729
0
LINE
8
BLACK
6
CONTINUOUS
10
188.934
20
-195.729
11
188.934
21
-195.943
0
LINE
8
BLACK
6
CONTINUOUS
10
188.934
20
-195.943
11
188.863
21
-196.229
0
LINE
8
BLACK
6
CONTINUOUS
10
188.863
20
-196.229
11
188.791
21
-196.371
0
LINE
8
BLACK
6
CONTINUOUS
10
188.791
20
-196.371
11
188.649
21
-196.514
0
LINE
8
BLACK
6
CONTINUOUS
10
188.649
20
-196.514
11
188.434
21
-196.586
0
LINE
8
BLACK
6
CONTINUOUS
10
188.434
20
-196.586
11
188.077
21
-196.586
0
LINE
8
BLACK
6
CONTINUOUS
10
189.577
20
-196.443
11
189.649
21
-196.514
0
LINE
8
BLACK
6
CONTINUOUS
10
189.649
20
-196.514
11
189.577
21
-196.586
0
LINE
8
BLACK
6
CONTINUOUS
10
189.577
20
-196.586
11
189.506
21
-196.514
0
LINE
8
BLACK
6
CONTINUOUS
10
189.506
20
-196.514
11
189.577
21
-196.443
0
LINE
8
BLACK
6
CONTINUOUS
10
189.577
20
-196.443
11
189.577
21
-196.586
0
LINE
8
BLACK
6
CONTINUOUS
10
190.22
20
-196.157
11
190.934
21
-196.157
0
LINE
8
BLACK
6
CONTINUOUS
10
190.077
20
-196.586
11
190.577
21
-195.086
0
LINE
8
BLACK
6
CONTINUOUS
10
190.577
20
-195.086
11
191.077
21
-196.586
0
LINE
8
BLACK
6
CONTINUOUS
10
191.577
20
-196.443
11
191.649
21
-196.514
0
LINE
8
BLACK
6
CONTINUOUS
10
191.649
20
-196.514
11
191.577
21
-196.586
0
LINE
8
BLACK
6
CONTINUOUS
10
191.577
20
-196.586
11
191.506
21
-196.514
0
LINE
8
BLACK
6
CONTINUOUS
10
191.506
20
-196.514
11
191.577
21
-196.443
0
LINE
8
BLACK
6
CONTINUOUS
10
191.577
20
-196.443
11
191.577
21
-196.586
0
LINE
8
BLACK
6
CONTINUOUS
10
194.577
20
-196.586
11
194.577
21
-195.086
0
LINE
8
BLACK
6
CONTINUOUS
10
194.72
20
-196.014
11
195.149
21
-196.586
0
LINE
8
BLACK
6
CONTINUOUS
10
195.149
20
-195.586
11
194.577
21
-196.157
0
LINE
8
BLACK
6
CONTINUOUS
10
195.791
20
-196.586
11
195.791
21
-195.586
0
LINE
8
BLACK
6
CONTINUOUS
10
195.791
20
-195.086
11
195.72
21
-195.157
0
LINE
8
BLACK
6
CONTINUOUS
10
195.72
20
-195.157
11
195.791
21
-195.229
0
LINE
8
BLACK
6
CONTINUOUS
10
195.791
20
-195.229
11
195.863
21
-195.157
0
LINE
8
BLACK
6
CONTINUOUS
10
195.863
20
-195.157
11
195.791
21
-195.086
0
LINE
8
BLACK
6
CONTINUOUS
10
195.791
20
-195.086
11
195.791
21
-195.229
0
LINE
8
BLACK
6
CONTINUOUS
10
197.149
20
-196.514
11
197.006
21
-196.586
0
LINE
8
BLACK
6
CONTINUOUS
10
197.006
20
-196.586
11
196.72
21
-196.586
0
LINE
8
BLACK
6
CONTINUOUS
10
196.72
20
-196.586
11
196.577
21
-196.514
0
LINE
8
BLACK
6
CONTINUOUS
10
196.577
20
-196.514
11
196.506
21
-196.443
0
LINE
8
BLACK
6
CONTINUOUS
10
196.506
20
-196.443
11
196.434
21
-196.3
0
LINE
8
BLACK
6
CONTINUOUS
10
196.434
20
-196.3
11
196.434
21
-195.871
0
LINE
8
BLACK
6
CONTINUOUS
10
196.434
20
-195.871
11
196.506
21
-195.729
0
LINE
8
BLACK
6
CONTINUOUS
10
196.506
20
-195.729
11
196.577
21
-195.657
0
LINE
8
BLACK
6
CONTINUOUS
10
196.577
20
-195.657
11
196.72
21
-195.586
0
LINE
8
BLACK
6
CONTINUOUS
10
196.72
20
-195.586
11
197.006
21
-195.586
0
LINE
8
BLACK
6
CONTINUOUS
10
197.006
20
-195.586
11
197.149
21
-195.657
0
LINE
8
BLACK
6
CONTINUOUS
10
198.434
20
-196.586
11
198.434
21
-195.8
0
LINE
8
BLACK
6
CONTINUOUS
10
198.434
20
-195.8
11
198.363
21
-195.657
0
LINE
8
BLACK
6
CONTINUOUS
10
198.363
20
-195.657
11
198.22
21
-195.586
0
LINE
8
BLACK
6
CONTINUOUS
10
198.22
20
-195.586
11
197.934
21
-195.586
0
LINE
8
BLACK
6
CONTINUOUS
10
197.934
20
-195.586
11
197.791
21
-195.657
0
LINE
8
BLACK
6
CONTINUOUS
10
198.434
20
-196.514
11
198.291
21
-196.586
0
LINE
8
BLACK
6
CONTINUOUS
10
198.291
20
-196.586
11
197.934
21
-196.586
0
LINE
8
BLACK
6
CONTINUOUS
10
197.934
20
-196.586
11
197.791
21
-196.514
0
LINE
8
BLACK
6
CONTINUOUS
10
197.791
20
-196.514
11
197.72
21
-196.371
0
LINE
8
BLACK
6
CONTINUOUS
10
197.72
20
-196.371
11
197.72
21
-196.229
0
LINE
8
BLACK
6
CONTINUOUS
10
197.72
20
-196.229
11
197.791
21
-196.086
0
LINE
8
BLACK
6
CONTINUOUS
10
197.791
20
-196.086
11
197.934
21
-196.014
0
LINE
8
BLACK
6
CONTINUOUS
10
197.934
20
-196.014
11
198.291
21
-196.014
0
LINE
8
BLACK
6
CONTINUOUS
10
198.291
20
-196.014
11
198.434
21
-195.943
0
LINE
8
BLACK
6
CONTINUOUS
10
199.791
20
-196.586
11
199.791
21
-195.086
0
LINE
8
BLACK
6
CONTINUOUS
10
199.791
20
-196.514
11
199.649
21
-196.586
0
LINE
8
BLACK
6
CONTINUOUS
10
199.649
20
-196.586
11
199.363
21
-196.586
0
LINE
8
BLACK
6
CONTINUOUS
10
199.363
20
-196.586
11
199.22
21
-196.514
0
LINE
8
BLACK
6
CONTINUOUS
10
199.22
20
-196.514
11
199.149
21
-196.443
0
LINE
8
BLACK
6
CONTINUOUS
10
199.149
20
-196.443
11
199.077
21
-196.3
0
LINE
8
BLACK
6
CONTINUOUS
10
199.077
20
-196.3
11
199.077
21
-195.871
0
LINE
8
BLACK
6
CONTINUOUS
10
199.077
20
-195.871
11
199.149
21
-195.729
0
LINE
8
BLACK
6
CONTINUOUS
10
199.149
20
-195.729
11
199.22
21
-195.657
0
LINE
8
BLACK
6
CONTINUOUS
10
199.22
20
-195.657
11
199.363
21
-195.586
0
LINE
8
BLACK
6
CONTINUOUS
10
199.363
20
-195.586
11
199.649
21
-195.586
0
LINE
8
BLACK
6
CONTINUOUS
10
199.649
20
-195.586
11
199.791
21
-195.657
0
LINE
8
BLACK
6
CONTINUOUS
10
202.291
20
-195.086
11
202.006
21
-195.086
0
LINE
8
BLACK
6
CONTINUOUS
10
202.006
20
-195.086
11
201.863
21
-195.157
0
LINE
8
BLACK
6
CONTINUOUS
10
201.863
20
-195.157
11
201.791
21
-195.229
0
LINE
8
BLACK
6
CONTINUOUS
10
201.791
20
-195.229
11
201.649
21
-195.443
0
LINE
8
BLACK
6
CONTINUOUS
10
201.649
20
-195.443
11
201.577
21
-195.729
0
LINE
8
BLACK
6
CONTINUOUS
10
201.577
20
-195.729
11
201.577
21
-196.3
0
LINE
8
BLACK
6
CONTINUOUS
10
201.577
20
-196.3
11
201.649
21
-196.443
0
LINE
8
BLACK
6
CONTINUOUS
10
201.649
20
-196.443
11
201.72
21
-196.514
0
LINE
8
BLACK
6
CONTINUOUS
10
201.72
20
-196.514
11
201.863
21
-196.586
0
LINE
8
BLACK
6
CONTINUOUS
10
201.863
20
-196.586
11
202.149
21
-196.586
0
LINE
8
BLACK
6
CONTINUOUS
10
202.149
20
-196.586
11
202.291
21
-196.514
0
LINE
8
BLACK
6
CONTINUOUS
10
202.291
20
-196.514
11
202.363
21
-196.443
0
LINE
8
BLACK
6
CONTINUOUS
10
202.363
20
-196.443
11
202.434
21
-196.3
0
LINE
8
BLACK
6
CONTINUOUS
10
202.434
20
-196.3
11
202.434
21
-195.943
0
LINE
8
BLACK
6
CONTINUOUS
10
202.434
20
-195.943
11
202.363
21
-195.8
0
LINE
8
BLACK
6
CONTINUOUS
10
202.363
20
-195.8
11
202.291
21
-195.729
0
LINE
8
BLACK
6
CONTINUOUS
10
202.291
20
-195.729
11
202.149
21
-195.657
0
LINE
8
BLACK
6
CONTINUOUS
10
202.149
20
-195.657
11
201.863
21
-195.657
0
LINE
8
BLACK
6
CONTINUOUS
10
201.863
20
-195.657
11
201.72
21
-195.729
0
LINE
8
BLACK
6
CONTINUOUS
10
201.72
20
-195.729
11
201.649
21
-195.8
0
LINE
8
BLACK
6
CONTINUOUS
10
201.649
20
-195.8
11
201.577
21
-195.943
0
LINE
8
BLACK
6
CONTINUOUS
10
203.077
20
-196.443
11
203.149
21
-196.514
0
LINE
8
BLACK
6
CONTINUOUS
10
203.149
20
-196.514
11
203.077
21
-196.586
0
LINE
8
BLACK
6
CONTINUOUS
10
203.077
20
-196.586
11
203.006
21
-196.514
0
LINE
8
BLACK
6
CONTINUOUS
10
203.006
20
-196.514
11
203.077
21
-196.443
0
LINE
8
BLACK
6
CONTINUOUS
10
203.077
20
-196.443
11
203.077
21
-196.586
0
LINE
8
BLACK
6
CONTINUOUS
10
204.077
20
-195.086
11
204.22
21
-195.086
0
LINE
8
BLACK
6
CONTINUOUS
10
204.22
20
-195.086
11
204.363
21
-195.157
0
LINE
8
BLACK
6
CONTINUOUS
10
204.363
20
-195.157
11
204.434
21
-195.229
0
LINE
8
BLACK
6
CONTINUOUS
10
204.434
20
-195.229
11
204.506
21
-195.371
0
LINE
8
BLACK
6
CONTINUOUS
10
204.506
20
-195.371
11
204.577
21
-195.657
0
LINE
8
BLACK
6
CONTINUOUS
10
204.577
20
-195.657
11
204.577
21
-196.014
0
LINE
8
BLACK
6
CONTINUOUS
10
204.577
20
-196.014
11
204.506
21
-196.3
0
LINE
8
BLACK
6
CONTINUOUS
10
204.506
20
-196.3
11
204.434
21
-196.443
0
LINE
8
BLACK
6
CONTINUOUS
10
204.434
20
-196.443
11
204.363
21
-196.514
0
LINE
8
BLACK
6
CONTINUOUS
10
204.363
20
-196.514
11
204.22
21
-196.586
0
LINE
8
BLACK
6
CONTINUOUS
10
204.22
20
-196.586
11
204.077
21
-196.586
0
LINE
8
BLACK
6
CONTINUOUS
10
204.077
20
-196.586
11
203.934
21
-196.514
0
LINE
8
BLACK
6
CONTINUOUS
10
203.934
20
-196.514
11
203.863
21
-196.443
0
LINE
8
BLACK
6
CONTINUOUS
10
203.863
20
-196.443
11
203.791
21
-196.3
0
LINE
8
BLACK
6
CONTINUOUS
10
203.791
20
-196.3
11
203.72
21
-196.014
0
LINE
8
BLACK
6
CONTINUOUS
10
203.72
20
-196.014
11
203.72
21
-195.657
0
LINE
8
BLACK
6
CONTINUOUS
10
203.72
20
-195.657
11
203.791
21
-195.371
0
LINE
8
BLACK
6
CONTINUOUS
10
203.791
20
-195.371
11
203.863
21
-195.229
0
LINE
8
BLACK
6
CONTINUOUS
10
203.863
20
-195.229
11
203.934
21
-195.157
0
LINE
8
BLACK
6
CONTINUOUS
10
203.934
20
-195.157
11
204.077
21
-195.086
0
LINE
8
BLACK
6
CONTINUOUS
10
205.22
20
-196.443
11
205.291
21
-196.514
0
LINE
8
BLACK
6
CONTINUOUS
10
205.291
20
-196.514
11
205.22
21
-196.586
0
LINE
8
BLACK
6
CONTINUOUS
10
205.22
20
-196.586
11
205.149
21
-196.514
0
LINE
8
BLACK
6
CONTINUOUS
10
205.149
20
-196.514
11
205.22
21
-196.443
0
LINE
8
BLACK
6
CONTINUOUS
10
205.22
20
-196.443
11
205.22
21
-196.586
0
LINE
8
BLACK
6
CONTINUOUS
10
205.863
20
-195.229
11
205.934
21
-195.157
0
LINE
8
BLACK
6
CONTINUOUS
10
205.934
20
-195.157
11
206.077
21
-195.086
0
LINE
8
BLACK
6
CONTINUOUS
10
206.077
20
-195.086
11
206.434
21
-195.086
0
LINE
8
BLACK
6
CONTINUOUS
10
206.434
20
-195.086
11
206.577
21
-195.157
0
LINE
8
BLACK
6
CONTINUOUS
10
206.577
20
-195.157
11
206.649
21
-195.229
0
LINE
8
BLACK
6
CONTINUOUS
10
206.649
20
-195.229
11
206.72
21
-195.371
0
LINE
8
BLACK
6
CONTINUOUS
10
206.72
20
-195.371
11
206.72
21
-195.514
0
LINE
8
BLACK
6
CONTINUOUS
10
206.72
20
-195.514
11
206.649
21
-195.729
0
LINE
8
BLACK
6
CONTINUOUS
10
206.649
20
-195.729
11
205.791
21
-196.586
0
LINE
8
BLACK
6
CONTINUOUS
10
205.791
20
-196.586
11
206.72
21
-196.586
0
LINE
8
BLACK
6
CONTINUOUS
10
207.363
20
-196.014
11
208.506
21
-196.014
0
LINE
8
BLACK
6
CONTINUOUS
10
207.934
20
-196.586
11
207.934
21
-195.443
0
LINE
8
BLACK
6
CONTINUOUS
10
209.863
20
-196.586
11
209.863
21
-195.086
0
LINE
8
BLACK
6
CONTINUOUS
10
209.863
20
-196.514
11
209.72
21
-196.586
0
LINE
8
BLACK
6
CONTINUOUS
10
209.72
20
-196.586
11
209.434
21
-196.586
0
LINE
8
BLACK
6
CONTINUOUS
10
209.434
20
-196.586
11
209.291
21
-196.514
0
LINE
8
BLACK
6
CONTINUOUS
10
209.291
20
-196.514
11
209.22
21
-196.443
0
LINE
8
BLACK
6
CONTINUOUS
10
209.22
20
-196.443
11
209.149
21
-196.3
0
LINE
8
BLACK
6
CONTINUOUS
10
209.149
20
-196.3
11
209.149
21
-195.871
0
LINE
8
BLACK
6
CONTINUOUS
10
209.149
20
-195.871
11
209.22
21
-195.729
0
LINE
8
BLACK
6
CONTINUOUS
10
209.22
20
-195.729
11
209.291
21
-195.657
0
LINE
8
BLACK
6
CONTINUOUS
10
209.291
20
-195.657
11
209.434
21
-195.586
0
LINE
8
BLACK
6
CONTINUOUS
10
209.434
20
-195.586
11
209.72
21
-195.586
0
LINE
8
BLACK
6
CONTINUOUS
10
209.72
20
-195.586
11
209.863
21
-195.657
0
LINE
8
BLACK
6
CONTINUOUS
10
210.363
20
-195.586
11
210.934
21
-195.586
0
LINE
8
BLACK
6
CONTINUOUS
10
210.577
20
-196.586
11
210.577
21
-195.3
0
LINE
8
BLACK
6
CONTINUOUS
10
210.577
20
-195.3
11
210.649
21
-195.157
0
LINE
8
BLACK
6
CONTINUOUS
10
210.649
20
-195.157
11
210.791
21
-195.086
0
LINE
8
BLACK
6
CONTINUOUS
10
210.791
20
-195.086
11
210.934
21
-195.086
0
LINE
8
BLACK
6
CONTINUOUS
10
211.363
20
-196.514
11
211.506
21
-196.586
0
LINE
8
BLACK
6
CONTINUOUS
10
211.506
20
-196.586
11
211.791
21
-196.586
0
LINE
8
BLACK
6
CONTINUOUS
10
211.791
20
-196.586
11
211.934
21
-196.514
0
LINE
8
BLACK
6
CONTINUOUS
10
211.934
20
-196.514
11
212.006
21
-196.371
0
LINE
8
BLACK
6
CONTINUOUS
10
212.006
20
-196.371
11
212.006
21
-196.3
0
LINE
8
BLACK
6
CONTINUOUS
10
212.006
20
-196.3
11
211.934
21
-196.157
0
LINE
8
BLACK
6
CONTINUOUS
10
211.934
20
-196.157
11
211.791
21
-196.086
0
LINE
8
BLACK
6
CONTINUOUS
10
211.791
20
-196.086
11
211.577
21
-196.086
0
LINE
8
BLACK
6
CONTINUOUS
10
211.577
20
-196.086
11
211.434
21
-196.014
0
LINE
8
BLACK
6
CONTINUOUS
10
211.434
20
-196.014
11
211.363
21
-195.871
0
LINE
8
BLACK
6
CONTINUOUS
10
211.363
20
-195.871
11
211.363
21
-195.8
0
LINE
8
BLACK
6
CONTINUOUS
10
211.363
20
-195.8
11
211.434
21
-195.657
0
LINE
8
BLACK
6
CONTINUOUS
10
211.434
20
-195.657
11
211.577
21
-195.586
0
LINE
8
BLACK
6
CONTINUOUS
10
211.577
20
-195.586
11
211.791
21
-195.586
0
LINE
8
BLACK
6
CONTINUOUS
10
211.791
20
-195.586
11
211.934
21
-195.657
0
LINE
8
BLACK
6
CONTINUOUS
10
213.291
20
-195.586
11
213.291
21
-196.8
0
LINE
8
BLACK
6
CONTINUOUS
10
213.291
20
-196.8
11
213.22
21
-196.943
0
LINE
8
BLACK
6
CONTINUOUS
10
213.22
20
-196.943
11
213.149
21
-197.014
0
LINE
8
BLACK
6
CONTINUOUS
10
213.149
20
-197.014
11
213.006
21
-197.086
0
LINE
8
BLACK
6
CONTINUOUS
10
213.006
20
-197.086
11
212.791
21
-197.086
0
LINE
8
BLACK
6
CONTINUOUS
10
212.791
20
-197.086
11
212.649
21
-197.014
0
LINE
8
BLACK
6
CONTINUOUS
10
213.291
20
-196.514
11
213.149
21
-196.586
0
LINE
8
BLACK
6
CONTINUOUS
10
213.149
20
-196.586
11
212.863
21
-196.586
0
LINE
8
BLACK
6
CONTINUOUS
10
212.863
20
-196.586
11
212.72
21
-196.514
0
LINE
8
BLACK
6
CONTINUOUS
10
212.72
20
-196.514
11
212.649
21
-196.443
0
LINE
8
BLACK
6
CONTINUOUS
10
212.649
20
-196.443
11
212.577
21
-196.3
0
LINE
8
BLACK
6
CONTINUOUS
10
212.577
20
-196.3
11
212.577
21
-195.871
0
LINE
8
BLACK
6
CONTINUOUS
10
212.577
20
-195.871
11
212.649
21
-195.729
0
LINE
8
BLACK
6
CONTINUOUS
10
212.649
20
-195.729
11
212.72
21
-195.657
0
LINE
8
BLACK
6
CONTINUOUS
10
212.72
20
-195.657
11
212.863
21
-195.586
0
LINE
8
BLACK
6
CONTINUOUS
10
212.863
20
-195.586
11
213.149
21
-195.586
0
LINE
8
BLACK
6
CONTINUOUS
10
213.149
20
-195.586
11
213.291
21
-195.657
0
LINE
8
BLACK
6
CONTINUOUS
10
214.006
20
-196.014
11
215.149
21
-196.014
0
LINE
8
BLACK
6
CONTINUOUS
10
216.649
20
-196.586
11
215.791
21
-196.586
0
LINE
8
BLACK
6
CONTINUOUS
10
216.22
20
-196.586
11
216.22
21
-195.086
0
LINE
8
BLACK
6
CONTINUOUS
10
216.22
20
-195.086
11
216.077
21
-195.3
0
LINE
8
BLACK
6
CONTINUOUS
10
216.077
20
-195.3
11
215.934
21
-195.443
0
LINE
8
BLACK
6
CONTINUOUS
10
215.934
20
-195.443
11
215.791
21
-195.514
0
LINE
8
BLACK
6
CONTINUOUS
10
177.002
20
-191.507
11
285.002
21
-191.507
0
LINE
8
BLACK
6
CONTINUOUS
10
264.411
20
-193.786
11
263.911
21
-193.071
0
LINE
8
BLACK
6
CONTINUOUS
10
263.554
20
-193.786
11
263.554
21
-192.286
0
LINE
8
BLACK
6
CONTINUOUS
10
263.554
20
-192.286
11
264.126
21
-192.286
0
LINE
8
BLACK
6
CONTINUOUS
10
264.126
20
-192.286
11
264.269
21
-192.357
0
LINE
8
BLACK
6
CONTINUOUS
10
264.269
20
-192.357
11
264.34
21
-192.429
0
LINE
8
BLACK
6
CONTINUOUS
10
264.34
20
-192.429
11
264.411
21
-192.571
0
LINE
8
BLACK
6
CONTINUOUS
10
264.411
20
-192.571
11
264.411
21
-192.786
0
LINE
8
BLACK
6
CONTINUOUS
10
264.411
20
-192.786
11
264.34
21
-192.929
0
LINE
8
BLACK
6
CONTINUOUS
10
264.34
20
-192.929
11
264.269
21
-193
0
LINE
8
BLACK
6
CONTINUOUS
10
264.269
20
-193
11
264.126
21
-193.071
0
LINE
8
BLACK
6
CONTINUOUS
10
264.126
20
-193.071
11
263.554
21
-193.071
0
LINE
8
BLACK
6
CONTINUOUS
10
265.626
20
-193.714
11
265.483
21
-193.786
0
LINE
8
BLACK
6
CONTINUOUS
10
265.483
20
-193.786
11
265.197
21
-193.786
0
LINE
8
BLACK
6
CONTINUOUS
10
265.197
20
-193.786
11
265.054
21
-193.714
0
LINE
8
BLACK
6
CONTINUOUS
10
265.054
20
-193.714
11
264.983
21
-193.571
0
LINE
8
BLACK
6
CONTINUOUS
10
264.983
20
-193.571
11
264.983
21
-193
0
LINE
8
BLACK
6
CONTINUOUS
10
264.983
20
-193
11
265.054
21
-192.857
0
LINE
8
BLACK
6
CONTINUOUS
10
265.054
20
-192.857
11
265.197
21
-192.786
0
LINE
8
BLACK
6
CONTINUOUS
10
265.197
20
-192.786
11
265.483
21
-192.786
0
LINE
8
BLACK
6
CONTINUOUS
10
265.483
20
-192.786
11
265.626
21
-192.857
0
LINE
8
BLACK
6
CONTINUOUS
10
265.626
20
-192.857
11
265.697
21
-193
0
LINE
8
BLACK
6
CONTINUOUS
10
265.697
20
-193
11
265.697
21
-193.143
0
LINE
8
BLACK
6
CONTINUOUS
10
265.697
20
-193.143
11
264.983
21
-193.286
0
LINE
8
BLACK
6
CONTINUOUS
10
266.197
20
-192.786
11
266.554
21
-193.786
0
LINE
8
BLACK
6
CONTINUOUS
10
266.554
20
-193.786
11
266.911
21
-192.786
0
LINE
8
BLACK
6
CONTINUOUS
10
267.483
20
-193.643
11
267.554
21
-193.714
0
LINE
8
BLACK
6
CONTINUOUS
10
267.554
20
-193.714
11
267.483
21
-193.786
0
LINE
8
BLACK
6
CONTINUOUS
10
267.483
20
-193.786
11
267.411
21
-193.714
0
LINE
8
BLACK
6
CONTINUOUS
10
267.411
20
-193.714
11
267.483
21
-193.643
0
LINE
8
BLACK
6
CONTINUOUS
10
267.483
20
-193.643
11
267.483
21
-193.786
0
LINE
8
BLACK
6
CONTINUOUS
10
267.483
20
-192.857
11
267.554
21
-192.929
0
LINE
8
BLACK
6
CONTINUOUS
10
267.554
20
-192.929
11
267.483
21
-193
0
LINE
8
BLACK
6
CONTINUOUS
10
267.483
20
-193
11
267.411
21
-192.929
0
LINE
8
BLACK
6
CONTINUOUS
10
267.411
20
-192.929
11
267.483
21
-192.857
0
LINE
8
BLACK
6
CONTINUOUS
10
267.483
20
-192.857
11
267.483
21
-193
0
LINE
8
BLACK
6
CONTINUOUS
10
178.363
20
-193.714
11
178.577
21
-193.786
0
LINE
8
BLACK
6
CONTINUOUS
10
178.577
20
-193.786
11
178.934
21
-193.786
0
LINE
8
BLACK
6
CONTINUOUS
10
178.934
20
-193.786
11
179.077
21
-193.714
0
LINE
8
BLACK
6
CONTINUOUS
10
179.077
20
-193.714
11
179.149
21
-193.643
0
LINE
8
BLACK
6
CONTINUOUS
10
179.149
20
-193.643
11
179.22
21
-193.5
0
LINE
8
BLACK
6
CONTINUOUS
10
179.22
20
-193.5
11
179.22
21
-193.357
0
LINE
8
BLACK
6
CONTINUOUS
10
179.22
20
-193.357
11
179.149
21
-193.214
0
LINE
8
BLACK
6
CONTINUOUS
10
179.149
20
-193.214
11
179.077
21
-193.143
0
LINE
8
BLACK
6
CONTINUOUS
10
179.077
20
-193.143
11
178.934
21
-193.071
0
LINE
8
BLACK
6
CONTINUOUS
10
178.934
20
-193.071
11
178.649
21
-193
0
LINE
8
BLACK
6
CONTINUOUS
10
178.649
20
-193
11
178.506
21
-192.929
0
LINE
8
BLACK
6
CONTINUOUS
10
178.506
20
-192.929
11
178.434
21
-192.857
0
LINE
8
BLACK
6
CONTINUOUS
10
178.434
20
-192.857
11
178.363
21
-192.714
0
LINE
8
BLACK
6
CONTINUOUS
10
178.363
20
-192.714
11
178.363
21
-192.571
0
LINE
8
BLACK
6
CONTINUOUS
10
178.363
20
-192.571
11
178.434
21
-192.429
0
LINE
8
BLACK
6
CONTINUOUS
10
178.434
20
-192.429
11
178.506
21
-192.357
0
LINE
8
BLACK
6
CONTINUOUS
10
178.506
20
-192.357
11
178.649
21
-192.286
0
LINE
8
BLACK
6
CONTINUOUS
10
178.649
20
-192.286
11
179.006
21
-192.286
0
LINE
8
BLACK
6
CONTINUOUS
10
179.006
20
-192.286
11
179.22
21
-192.357
0
LINE
8
BLACK
6
CONTINUOUS
10
179.863
20
-193.786
11
179.863
21
-192.786
0
LINE
8
BLACK
6
CONTINUOUS
10
179.863
20
-192.286
11
179.791
21
-192.357
0
LINE
8
BLACK
6
CONTINUOUS
10
179.791
20
-192.357
11
179.863
21
-192.429
0
LINE
8
BLACK
6
CONTINUOUS
10
179.863
20
-192.429
11
179.934
21
-192.357
0
LINE
8
BLACK
6
CONTINUOUS
10
179.934
20
-192.357
11
179.863
21
-192.286
0
LINE
8
BLACK
6
CONTINUOUS
10
179.863
20
-192.286
11
179.863
21
-192.429
0
LINE
8
BLACK
6
CONTINUOUS
10
180.434
20
-192.786
11
181.22
21
-192.786
0
LINE
8
BLACK
6
CONTINUOUS
10
181.22
20
-192.786
11
180.434
21
-193.786
0
LINE
8
BLACK
6
CONTINUOUS
10
180.434
20
-193.786
11
181.22
21
-193.786
0
LINE
8
BLACK
6
CONTINUOUS
10
182.363
20
-193.714
11
182.22
21
-193.786
0
LINE
8
BLACK
6
CONTINUOUS
10
182.22
20
-193.786
11
181.934
21
-193.786
0
LINE
8
BLACK
6
CONTINUOUS
10
181.934
20
-193.786
11
181.791
21
-193.714
0
LINE
8
BLACK
6
CONTINUOUS
10
181.791
20
-193.714
11
181.72
21
-193.571
0
LINE
8
BLACK
6
CONTINUOUS
10
181.72
20
-193.571
11
181.72
21
-193
0
LINE
8
BLACK
6
CONTINUOUS
10
181.72
20
-193
11
181.791
21
-192.857
0
LINE
8
BLACK
6
CONTINUOUS
10
181.791
20
-192.857
11
181.934
21
-192.786
0
LINE
8
BLACK
6
CONTINUOUS
10
181.934
20
-192.786
11
182.22
21
-192.786
0
LINE
8
BLACK
6
CONTINUOUS
10
182.22
20
-192.786
11
182.363
21
-192.857
0
LINE
8
BLACK
6
CONTINUOUS
10
182.363
20
-192.857
11
182.434
21
-193
0
LINE
8
BLACK
6
CONTINUOUS
10
182.434
20
-193
11
182.434
21
-193.143
0
LINE
8
BLACK
6
CONTINUOUS
10
182.434
20
-193.143
11
181.72
21
-193.286
0
LINE
8
BLACK
6
CONTINUOUS
10
183.077
20
-193.643
11
183.149
21
-193.714
0
LINE
8
BLACK
6
CONTINUOUS
10
183.149
20
-193.714
11
183.077
21
-193.786
0
LINE
8
BLACK
6
CONTINUOUS
10
183.077
20
-193.786
11
183.006
21
-193.714
0
LINE
8
BLACK
6
CONTINUOUS
10
183.006
20
-193.714
11
183.077
21
-193.643
0
LINE
8
BLACK
6
CONTINUOUS
10
183.077
20
-193.643
11
183.077
21
-193.786
0
LINE
8
BLACK
6
CONTINUOUS
10
183.077
20
-192.857
11
183.149
21
-192.929
0
LINE
8
BLACK
6
CONTINUOUS
10
183.149
20
-192.929
11
183.077
21
-193
0
LINE
8
BLACK
6
CONTINUOUS
10
183.077
20
-193
11
183.006
21
-192.929
0
LINE
8
BLACK
6
CONTINUOUS
10
183.006
20
-192.929
11
183.077
21
-192.857
0
LINE
8
BLACK
6
CONTINUOUS
10
183.077
20
-192.857
11
183.077
21
-193
0
LINE
8
BLACK
6
CONTINUOUS
10
184.863
20
-193.357
11
185.577
21
-193.357
0
LINE
8
BLACK
6
CONTINUOUS
10
184.72
20
-193.786
11
185.22
21
-192.286
0
LINE
8
BLACK
6
CONTINUOUS
10
185.22
20
-192.286
11
185.72
21
-193.786
0
LINE
8
BLACK
6
CONTINUOUS
10
186.863
20
-192.786
11
186.863
21
-193.786
0
LINE
8
BLACK
6
CONTINUOUS
10
186.506
20
-192.214
11
186.149
21
-193.286
0
LINE
8
BLACK
6
CONTINUOUS
10
186.149
20
-193.286
11
187.077
21
-193.286
0
LINE
8
BLACK
6
CONTINUOUS
10
263.434
20
-196.586
11
263.434
21
-195.086
0
LINE
8
BLACK
6
CONTINUOUS
10
264.791
20
-196.586
11
264.791
21
-195.086
0
LINE
8
BLACK
6
CONTINUOUS
10
264.791
20
-196.514
11
264.649
21
-196.586
0
LINE
8
BLACK
6
CONTINUOUS
10
264.649
20
-196.586
11
264.363
21
-196.586
0
LINE
8
BLACK
6
CONTINUOUS
10
264.363
20
-196.586
11
264.22
21
-196.514
0
LINE
8
BLACK
6
CONTINUOUS
10
264.22
20
-196.514
11
264.149
21
-196.443
0
LINE
8
BLACK
6
CONTINUOUS
10
264.149
20
-196.443
11
264.077
21
-196.3
0
LINE
8
BLACK
6
CONTINUOUS
10
264.077
20
-196.3
11
264.077
21
-195.871
0
LINE
8
BLACK
6
CONTINUOUS
10
264.077
20
-195.871
11
264.149
21
-195.729
0
LINE
8
BLACK
6
CONTINUOUS
10
264.149
20
-195.729
11
264.22
21
-195.657
0
LINE
8
BLACK
6
CONTINUOUS
10
264.22
20
-195.657
11
264.363
21
-195.586
0
LINE
8
BLACK
6
CONTINUOUS
10
264.363
20
-195.586
11
264.649
21
-195.586
0
LINE
8
BLACK
6
CONTINUOUS
10
264.649
20
-195.586
11
264.791
21
-195.657
0
LINE
8
BLACK
6
CONTINUOUS
10
265.506
20
-196.443
11
265.577
21
-196.514
0
LINE
8
BLACK
6
CONTINUOUS
10
265.577
20
-196.514
11
265.506
21
-196.586
0
LINE
8
BLACK
6
CONTINUOUS
10
265.506
20
-196.586
11
265.434
21
-196.514
0
LINE
8
BLACK
6
CONTINUOUS
10
265.434
20
-196.514
11
265.506
21
-196.443
0
LINE
8
BLACK
6
CONTINUOUS
10
265.506
20
-196.443
11
265.506
21
-196.586
0
LINE
8
BLACK
6
CONTINUOUS
10
265.506
20
-195.657
11
265.577
21
-195.729
0
LINE
8
BLACK
6
CONTINUOUS
10
265.577
20
-195.729
11
265.506
21
-195.8
0
LINE
8
BLACK
6
CONTINUOUS
10
265.506
20
-195.8
11
265.434
21
-195.729
0
LINE
8
BLACK
6
CONTINUOUS
10
265.434
20
-195.729
11
265.506
21
-195.657
0
LINE
8
BLACK
6
CONTINUOUS
10
265.506
20
-195.657
11
265.506
21
-195.8
0
LINE
8
BLACK
6
CONTINUOUS
10
268.149
20
-196.586
11
267.291
21
-196.586
0
LINE
8
BLACK
6
CONTINUOUS
10
267.72
20
-196.586
11
267.72
21
-195.086
0
LINE
8
BLACK
6
CONTINUOUS
10
267.72
20
-195.086
11
267.577
21
-195.3
0
LINE
8
BLACK
6
CONTINUOUS
10
267.577
20
-195.3
11
267.434
21
-195.443
0
LINE
8
BLACK
6
CONTINUOUS
10
267.434
20
-195.443
11
267.291
21
-195.514
0
LINE
8
BLACK
6
CONTINUOUS
10
269.863
20
-195.014
11
268.577
21
-196.943
0
LINE
8
BLACK
6
CONTINUOUS
10
271.149
20
-196.586
11
270.291
21
-196.586
0
LINE
8
BLACK
6
CONTINUOUS
10
270.72
20
-196.586
11
270.72
21
-195.086
0
LINE
8
BLACK
6
CONTINUOUS
10
270.72
20
-195.086
11
270.577
21
-195.3
0
LINE
8
BLACK
6
CONTINUOUS
10
270.577
20
-195.3
11
270.434
21
-195.443
0
LINE
8
BLACK
6
CONTINUOUS
10
270.434
20
-195.443
11
270.291
21
-195.514
0
LINE
8
BLACK
6
CONTINUOUS
10
177.002
20
-187.507
11
285.002
21
-187.507
0
LINE
8
BLACK
6
CONTINUOUS
10
178.715
20
-188.212
11
179.857
21
-188.212
0
LINE
8
BLACK
6
CONTINUOUS
10
179.036
20
-190.212
11
179.286
21
-188.212
0
LINE
8
BLACK
6
CONTINUOUS
10
180.274
20
-190.212
11
180.441
21
-188.879
0
LINE
8
BLACK
6
CONTINUOUS
10
180.524
20
-188.212
11
180.417
21
-188.307
0
LINE
8
BLACK
6
CONTINUOUS
10
180.417
20
-188.307
11
180.5
21
-188.402
0
LINE
8
BLACK
6
CONTINUOUS
10
180.5
20
-188.402
11
180.607
21
-188.307
0
LINE
8
BLACK
6
CONTINUOUS
10
180.607
20
-188.307
11
180.524
21
-188.212
0
LINE
8
BLACK
6
CONTINUOUS
10
180.524
20
-188.212
11
180.5
21
-188.402
0
LINE
8
BLACK
6
CONTINUOUS
10
181.107
20
-188.879
11
181.869
21
-188.879
0
LINE
8
BLACK
6
CONTINUOUS
10
181.476
20
-188.212
11
181.262
21
-189.926
0
LINE
8
BLACK
6
CONTINUOUS
10
181.262
20
-189.926
11
181.334
21
-190.117
0
LINE
8
BLACK
6
CONTINUOUS
10
181.334
20
-190.117
11
181.512
21
-190.212
0
LINE
8
BLACK
6
CONTINUOUS
10
181.512
20
-190.212
11
181.703
21
-190.212
0
LINE
8
BLACK
6
CONTINUOUS
10
182.655
20
-190.212
11
182.476
21
-190.117
0
LINE
8
BLACK
6
CONTINUOUS
10
182.476
20
-190.117
11
182.405
21
-189.926
0
LINE
8
BLACK
6
CONTINUOUS
10
182.405
20
-189.926
11
182.619
21
-188.212
0
LINE
8
BLACK
6
CONTINUOUS
10
184.191
20
-190.117
11
183.988
21
-190.212
0
LINE
8
BLACK
6
CONTINUOUS
10
183.988
20
-190.212
11
183.607
21
-190.212
0
LINE
8
BLACK
6
CONTINUOUS
10
183.607
20
-190.212
11
183.429
21
-190.117
0
LINE
8
BLACK
6
CONTINUOUS
10
183.429
20
-190.117
11
183.357
21
-189.926
0
LINE
8
BLACK
6
CONTINUOUS
10
183.357
20
-189.926
11
183.453
21
-189.164
0
LINE
8
BLACK
6
CONTINUOUS
10
183.453
20
-189.164
11
183.572
21
-188.974
0
LINE
8
BLACK
6
CONTINUOUS
10
183.572
20
-188.974
11
183.774
21
-188.879
0
LINE
8
BLACK
6
CONTINUOUS
10
183.774
20
-188.879
11
184.155
21
-188.879
0
LINE
8
BLACK
6
CONTINUOUS
10
184.155
20
-188.879
11
184.334
21
-188.974
0
LINE
8
BLACK
6
CONTINUOUS
10
184.334
20
-188.974
11
184.405
21
-189.164
0
LINE
8
BLACK
6
CONTINUOUS
10
184.405
20
-189.164
11
184.381
21
-189.355
0
LINE
8
BLACK
6
CONTINUOUS
10
184.381
20
-189.355
11
183.405
21
-189.545
0
LINE
8
BLACK
6
CONTINUOUS
10
185.155
20
-190.021
11
185.238
21
-190.117
0
LINE
8
BLACK
6
CONTINUOUS
10
185.238
20
-190.117
11
185.131
21
-190.212
0
LINE
8
BLACK
6
CONTINUOUS
10
185.131
20
-190.212
11
185.048
21
-190.117
0
LINE
8
BLACK
6
CONTINUOUS
10
185.048
20
-190.117
11
185.155
21
-190.021
0
LINE
8
BLACK
6
CONTINUOUS
10
185.155
20
-190.021
11
185.131
21
-190.212
0
LINE
8
BLACK
6
CONTINUOUS
10
185.286
20
-188.974
11
185.369
21
-189.069
0
LINE
8
BLACK
6
CONTINUOUS
10
185.369
20
-189.069
11
185.262
21
-189.164
0
LINE
8
BLACK
6
CONTINUOUS
10
185.262
20
-189.164
11
185.179
21
-189.069
0
LINE
8
BLACK
6
CONTINUOUS
10
185.179
20
-189.069
11
185.286
21
-188.974
0
LINE
8
BLACK
6
CONTINUOUS
10
185.286
20
-188.974
11
185.262
21
-189.164
0
LINE
8
BLACK
6
CONTINUOUS
10
178.934
20
-185.6
11
178.434
21
-185.6
0
LINE
8
BLACK
6
CONTINUOUS
10
178.434
20
-186.386
11
178.434
21
-184.886
0
LINE
8
BLACK
6
CONTINUOUS
10
178.434
20
-184.886
11
179.149
21
-184.886
0
LINE
8
BLACK
6
CONTINUOUS
10
179.72
20
-186.386
11
179.72
21
-185.386
0
LINE
8
BLACK
6
CONTINUOUS
10
179.72
20
-184.886
11
179.649
21
-184.957
0
LINE
8
BLACK
6
CONTINUOUS
10
179.649
20
-184.957
11
179.72
21
-185.029
0
LINE
8
BLACK
6
CONTINUOUS
10
179.72
20
-185.029
11
179.791
21
-184.957
0
LINE
8
BLACK
6
CONTINUOUS
10
179.791
20
-184.957
11
179.72
21
-184.886
0
LINE
8
BLACK
6
CONTINUOUS
10
179.72
20
-184.886
11
179.72
21
-185.029
0
LINE
8
BLACK
6
CONTINUOUS
10
180.649
20
-186.386
11
180.506
21
-186.314
0
LINE
8
BLACK
6
CONTINUOUS
10
180.506
20
-186.314
11
180.434
21
-186.171
0
LINE
8
BLACK
6
CONTINUOUS
10
180.434
20
-186.171
11
180.434
21
-184.886
0
LINE
8
BLACK
6
CONTINUOUS
10
181.791
20
-186.314
11
181.649
21
-186.386
0
LINE
8
BLACK
6
CONTINUOUS
10
181.649
20
-186.386
11
181.363
21
-186.386
0
LINE
8
BLACK
6
CONTINUOUS
10
181.363
20
-186.386
11
181.22
21
-186.314
0
LINE
8
BLACK
6
CONTINUOUS
10
181.22
20
-186.314
11
181.149
21
-186.171
0
LINE
8
BLACK
6
CONTINUOUS
10
181.149
20
-186.171
11
181.149
21
-185.6
0
LINE
8
BLACK
6
CONTINUOUS
10
181.149
20
-185.6
11
181.22
21
-185.457
0
LINE
8
BLACK
6
CONTINUOUS
10
181.22
20
-185.457
11
181.363
21
-185.386
0
LINE
8
BLACK
6
CONTINUOUS
10
181.363
20
-185.386
11
181.649
21
-185.386
0
LINE
8
BLACK
6
CONTINUOUS
10
181.649
20
-185.386
11
181.791
21
-185.457
0
LINE
8
BLACK
6
CONTINUOUS
10
181.791
20
-185.457
11
181.863
21
-185.6
0
LINE
8
BLACK
6
CONTINUOUS
10
181.863
20
-185.6
11
181.863
21
-185.743
0
LINE
8
BLACK
6
CONTINUOUS
10
181.863
20
-185.743
11
181.149
21
-185.886
0
LINE
8
BLACK
6
CONTINUOUS
10
182.506
20
-186.243
11
182.577
21
-186.314
0
LINE
8
BLACK
6
CONTINUOUS
10
182.577
20
-186.314
11
182.506
21
-186.386
0
LINE
8
BLACK
6
CONTINUOUS
10
182.506
20
-186.386
11
182.434
21
-186.314
0
LINE
8
BLACK
6
CONTINUOUS
10
182.434
20
-186.314
11
182.506
21
-186.243
0
LINE
8
BLACK
6
CONTINUOUS
10
182.506
20
-186.243
11
182.506
21
-186.386
0
LINE
8
BLACK
6
CONTINUOUS
10
182.506
20
-185.457
11
182.577
21
-185.529
0
LINE
8
BLACK
6
CONTINUOUS
10
182.577
20
-185.529
11
182.506
21
-185.6
0
LINE
8
BLACK
6
CONTINUOUS
10
182.506
20
-185.6
11
182.434
21
-185.529
0
LINE
8
BLACK
6
CONTINUOUS
10
182.434
20
-185.529
11
182.506
21
-185.457
0
LINE
8
BLACK
6
CONTINUOUS
10
182.506
20
-185.457
11
182.506
21
-185.6
0
LINE
8
BLACK
6
CONTINUOUS
10
184.149
20
-185.386
11
184.72
21
-185.386
0
LINE
8
BLACK
6
CONTINUOUS
10
184.363
20
-186.386
11
184.363
21
-185.1
0
LINE
8
BLACK
6
CONTINUOUS
10
184.363
20
-185.1
11
184.434
21
-184.957
0
LINE
8
BLACK
6
CONTINUOUS
10
184.434
20
-184.957
11
184.577
21
-184.886
0
LINE
8
BLACK
6
CONTINUOUS
10
184.577
20
-184.886
11
184.72
21
-184.886
0
LINE
8
BLACK
6
CONTINUOUS
10
185.22
20
-186.386
11
185.22
21
-185.386
0
LINE
8
BLACK
6
CONTINUOUS
10
185.22
20
-185.671
11
185.291
21
-185.529
0
LINE
8
BLACK
6
CONTINUOUS
10
185.291
20
-185.529
11
185.363
21
-185.457
0
LINE
8
BLACK
6
CONTINUOUS
10
185.363
20
-185.457
11
185.506
21
-185.386
0
LINE
8
BLACK
6
CONTINUOUS
10
185.506
20
-185.386
11
185.649
21
-185.386
0
LINE
8
BLACK
6
CONTINUOUS
10
186.363
20
-186.386
11
186.22
21
-186.314
0
LINE
8
BLACK
6
CONTINUOUS
10
186.22
20
-186.314
11
186.149
21
-186.243
0
LINE
8
BLACK
6
CONTINUOUS
10
186.149
20
-186.243
11
186.077
21
-186.1
0
LINE
8
BLACK
6
CONTINUOUS
10
186.077
20
-186.1
11
186.077
21
-185.671
0
LINE
8
BLACK
6
CONTINUOUS
10
186.077
20
-185.671
11
186.149
21
-185.529
0
LINE
8
BLACK
6
CONTINUOUS
10
186.149
20
-185.529
11
186.22
21
-185.457
0
LINE
8
BLACK
6
CONTINUOUS
10
186.22
20
-185.457
11
186.363
21
-185.386
0
LINE
8
BLACK
6
CONTINUOUS
10
186.363
20
-185.386
11
186.577
21
-185.386
0
LINE
8
BLACK
6
CONTINUOUS
10
186.577
20
-185.386
11
186.72
21
-185.457
0
LINE
8
BLACK
6
CONTINUOUS
10
186.72
20
-185.457
11
186.791
21
-185.529
0
LINE
8
BLACK
6
CONTINUOUS
10
186.791
20
-185.529
11
186.863
21
-185.671
0
LINE
8
BLACK
6
CONTINUOUS
10
186.863
20
-185.671
11
186.863
21
-186.1
0
LINE
8
BLACK
6
CONTINUOUS
10
186.863
20
-186.1
11
186.791
21
-186.243
0
LINE
8
BLACK
6
CONTINUOUS
10
186.791
20
-186.243
11
186.72
21
-186.314
0
LINE
8
BLACK
6
CONTINUOUS
10
186.72
20
-186.314
11
186.577
21
-186.386
0
LINE
8
BLACK
6
CONTINUOUS
10
186.577
20
-186.386
11
186.363
21
-186.386
0
LINE
8
BLACK
6
CONTINUOUS
10
187.506
20
-185.386
11
187.506
21
-186.386
0
LINE
8
BLACK
6
CONTINUOUS
10
187.506
20
-185.529
11
187.577
21
-185.457
0
LINE
8
BLACK
6
CONTINUOUS
10
187.577
20
-185.457
11
187.72
21
-185.386
0
LINE
8
BLACK
6
CONTINUOUS
10
187.72
20
-185.386
11
187.934
21
-185.386
0
LINE
8
BLACK
6
CONTINUOUS
10
187.934
20
-185.386
11
188.077
21
-185.457
0
LINE
8
BLACK
6
CONTINUOUS
10
188.077
20
-185.457
11
188.149
21
-185.6
0
LINE
8
BLACK
6
CONTINUOUS
10
188.149
20
-185.6
11
188.149
21
-186.386
0
LINE
8
BLACK
6
CONTINUOUS
10
188.649
20
-185.386
11
189.22
21
-185.386
0
LINE
8
BLACK
6
CONTINUOUS
10
188.863
20
-184.886
11
188.863
21
-186.171
0
LINE
8
BLACK
6
CONTINUOUS
10
188.863
20
-186.171
11
188.934
21
-186.314
0
LINE
8
BLACK
6
CONTINUOUS
10
188.934
20
-186.314
11
189.077
21
-186.386
0
LINE
8
BLACK
6
CONTINUOUS
10
189.077
20
-186.386
11
189.22
21
-186.386
0
LINE
8
BLACK
6
CONTINUOUS
10
189.72
20
-185.386
11
189.72
21
-186.886
0
LINE
8
BLACK
6
CONTINUOUS
10
189.72
20
-185.457
11
189.863
21
-185.386
0
LINE
8
BLACK
6
CONTINUOUS
10
189.863
20
-185.386
11
190.149
21
-185.386
0
LINE
8
BLACK
6
CONTINUOUS
10
190.149
20
-185.386
11
190.291
21
-185.457
0
LINE
8
BLACK
6
CONTINUOUS
10
190.291
20
-185.457
11
190.363
21
-185.529
0
LINE
8
BLACK
6
CONTINUOUS
10
190.363
20
-185.529
11
190.434
21
-185.671
0
LINE
8
BLACK
6
CONTINUOUS
10
190.434
20
-185.671
11
190.434
21
-186.1
0
LINE
8
BLACK
6
CONTINUOUS
10
190.434
20
-186.1
11
190.363
21
-186.243
0
LINE
8
BLACK
6
CONTINUOUS
10
190.363
20
-186.243
11
190.291
21
-186.314
0
LINE
8
BLACK
6
CONTINUOUS
10
190.291
20
-186.314
11
190.149
21
-186.386
0
LINE
8
BLACK
6
CONTINUOUS
10
190.149
20
-186.386
11
189.863
21
-186.386
0
LINE
8
BLACK
6
CONTINUOUS
10
189.863
20
-186.386
11
189.72
21
-186.314
0
LINE
8
BLACK
6
CONTINUOUS
10
191.291
20
-186.386
11
191.149
21
-186.314
0
LINE
8
BLACK
6
CONTINUOUS
10
191.149
20
-186.314
11
191.077
21
-186.171
0
LINE
8
BLACK
6
CONTINUOUS
10
191.077
20
-186.171
11
191.077
21
-184.886
0
LINE
8
BLACK
6
CONTINUOUS
10
192.506
20
-186.386
11
192.506
21
-185.6
0
LINE
8
BLACK
6
CONTINUOUS
10
192.506
20
-185.6
11
192.434
21
-185.457
0
LINE
8
BLACK
6
CONTINUOUS
10
192.434
20
-185.457
11
192.291
21
-185.386
0
LINE
8
BLACK
6
CONTINUOUS
10
192.291
20
-185.386
11
192.006
21
-185.386
0
LINE
8
BLACK
6
CONTINUOUS
10
192.006
20
-185.386
11
191.863
21
-185.457
0
LINE
8
BLACK
6
CONTINUOUS
10
192.506
20
-186.314
11
192.363
21
-186.386
0
LINE
8
BLACK
6
CONTINUOUS
10
192.363
20
-186.386
11
192.006
21
-186.386
0
LINE
8
BLACK
6
CONTINUOUS
10
192.006
20
-186.386
11
191.863
21
-186.314
0
LINE
8
BLACK
6
CONTINUOUS
10
191.863
20
-186.314
11
191.791
21
-186.171
0
LINE
8
BLACK
6
CONTINUOUS
10
191.791
20
-186.171
11
191.791
21
-186.029
0
LINE
8
BLACK
6
CONTINUOUS
10
191.791
20
-186.029
11
191.863
21
-185.886
0
LINE
8
BLACK
6
CONTINUOUS
10
191.863
20
-185.886
11
192.006
21
-185.814
0
LINE
8
BLACK
6
CONTINUOUS
10
192.006
20
-185.814
11
192.363
21
-185.814
0
LINE
8
BLACK
6
CONTINUOUS
10
192.363
20
-185.814
11
192.506
21
-185.743
0
LINE
8
BLACK
6
CONTINUOUS
10
193.006
20
-185.386
11
193.577
21
-185.386
0
LINE
8
BLACK
6
CONTINUOUS
10
193.22
20
-184.886
11
193.22
21
-186.171
0
LINE
8
BLACK
6
CONTINUOUS
10
193.22
20
-186.171
11
193.291
21
-186.314
0
LINE
8
BLACK
6
CONTINUOUS
10
193.291
20
-186.314
11
193.434
21
-186.386
0
LINE
8
BLACK
6
CONTINUOUS
10
193.434
20
-186.386
11
193.577
21
-186.386
0
LINE
8
BLACK
6
CONTINUOUS
10
194.649
20
-186.314
11
194.506
21
-186.386
0
LINE
8
BLACK
6
CONTINUOUS
10
194.506
20
-186.386
11
194.22
21
-186.386
0
LINE
8
BLACK
6
CONTINUOUS
10
194.22
20
-186.386
11
194.077
21
-186.314
0
LINE
8
BLACK
6
CONTINUOUS
10
194.077
20
-186.314
11
194.006
21
-186.171
0
LINE
8
BLACK
6
CONTINUOUS
10
194.006
20
-186.171
11
194.006
21
-185.6
0
LINE
8
BLACK
6
CONTINUOUS
10
194.006
20
-185.6
11
194.077
21
-185.457
0
LINE
8
BLACK
6
CONTINUOUS
10
194.077
20
-185.457
11
194.22
21
-185.386
0
LINE
8
BLACK
6
CONTINUOUS
10
194.22
20
-185.386
11
194.506
21
-185.386
0
LINE
8
BLACK
6
CONTINUOUS
10
194.506
20
-185.386
11
194.649
21
-185.457
0
LINE
8
BLACK
6
CONTINUOUS
10
194.649
20
-185.457
11
194.72
21
-185.6
0
LINE
8
BLACK
6
CONTINUOUS
10
194.72
20
-185.6
11
194.72
21
-185.743
0
LINE
8
BLACK
6
CONTINUOUS
10
194.72
20
-185.743
11
194.006
21
-185.886
0
LINE
8
BLACK
6
CONTINUOUS
10
195.363
20
-186.243
11
195.434
21
-186.314
0
LINE
8
BLACK
6
CONTINUOUS
10
195.434
20
-186.314
11
195.363
21
-186.386
0
LINE
8
BLACK
6
CONTINUOUS
10
195.363
20
-186.386
11
195.291
21
-186.314
0
LINE
8
BLACK
6
CONTINUOUS
10
195.291
20
-186.314
11
195.363
21
-186.243
0
LINE
8
BLACK
6
CONTINUOUS
10
195.363
20
-186.243
11
195.363
21
-186.386
0
LINE
8
BLACK
6
CONTINUOUS
10
196.077
20
-186.386
11
196.077
21
-184.886
0
LINE
8
BLACK
6
CONTINUOUS
10
196.22
20
-185.814
11
196.649
21
-186.386
0
LINE
8
BLACK
6
CONTINUOUS
10
196.649
20
-185.386
11
196.077
21
-185.957
0
LINE
8
BLACK
6
CONTINUOUS
10
197.291
20
-186.386
11
197.291
21
-185.386
0
LINE
8
BLACK
6
CONTINUOUS
10
197.291
20
-184.886
11
197.22
21
-184.957
0
LINE
8
BLACK
6
CONTINUOUS
10
197.22
20
-184.957
11
197.291
21
-185.029
0
LINE
8
BLACK
6
CONTINUOUS
10
197.291
20
-185.029
11
197.363
21
-184.957
0
LINE
8
BLACK
6
CONTINUOUS
10
197.363
20
-184.957
11
197.291
21
-184.886
0
LINE
8
BLACK
6
CONTINUOUS
10
197.291
20
-184.886
11
197.291
21
-185.029
0
LINE
8
BLACK
6
CONTINUOUS
10
198.649
20
-186.314
11
198.506
21
-186.386
0
LINE
8
BLACK
6
CONTINUOUS
10
198.506
20
-186.386
11
198.22
21
-186.386
0
LINE
8
BLACK
6
CONTINUOUS
10
198.22
20
-186.386
11
198.077
21
-186.314
0
LINE
8
BLACK
6
CONTINUOUS
10
198.077
20
-186.314
11
198.006
21
-186.243
0
LINE
8
BLACK
6
CONTINUOUS
10
198.006
20
-186.243
11
197.934
21
-186.1
0
LINE
8
BLACK
6
CONTINUOUS
10
197.934
20
-186.1
11
197.934
21
-185.671
0
LINE
8
BLACK
6
CONTINUOUS
10
197.934
20
-185.671
11
198.006
21
-185.529
0
LINE
8
BLACK
6
CONTINUOUS
10
198.006
20
-185.529
11
198.077
21
-185.457
0
LINE
8
BLACK
6
CONTINUOUS
10
198.077
20
-185.457
11
198.22
21
-185.386
0
LINE
8
BLACK
6
CONTINUOUS
10
198.22
20
-185.386
11
198.506
21
-185.386
0
LINE
8
BLACK
6
CONTINUOUS
10
198.506
20
-185.386
11
198.649
21
-185.457
0
LINE
8
BLACK
6
CONTINUOUS
10
199.934
20
-186.386
11
199.934
21
-185.6
0
LINE
8
BLACK
6
CONTINUOUS
10
199.934
20
-185.6
11
199.863
21
-185.457
0
LINE
8
BLACK
6
CONTINUOUS
10
199.863
20
-185.457
11
199.72
21
-185.386
0
LINE
8
BLACK
6
CONTINUOUS
10
199.72
20
-185.386
11
199.434
21
-185.386
0
LINE
8
BLACK
6
CONTINUOUS
10
199.434
20
-185.386
11
199.291
21
-185.457
0
LINE
8
BLACK
6
CONTINUOUS
10
199.934
20
-186.314
11
199.791
21
-186.386
0
LINE
8
BLACK
6
CONTINUOUS
10
199.791
20
-186.386
11
199.434
21
-186.386
0
LINE
8
BLACK
6
CONTINUOUS
10
199.434
20
-186.386
11
199.291
21
-186.314
0
LINE
8
BLACK
6
CONTINUOUS
10
199.291
20
-186.314
11
199.22
21
-186.171
0
LINE
8
BLACK
6
CONTINUOUS
10
199.22
20
-186.171
11
199.22
21
-186.029
0
LINE
8
BLACK
6
CONTINUOUS
10
199.22
20
-186.029
11
199.291
21
-185.886
0
LINE
8
BLACK
6
CONTINUOUS
10
199.291
20
-185.886
11
199.434
21
-185.814
0
LINE
8
BLACK
6
CONTINUOUS
10
199.434
20
-185.814
11
199.791
21
-185.814
0
LINE
8
BLACK
6
CONTINUOUS
10
199.791
20
-185.814
11
199.934
21
-185.743
0
LINE
8
BLACK
6
CONTINUOUS
10
201.291
20
-186.386
11
201.291
21
-184.886
0
LINE
8
BLACK
6
CONTINUOUS
10
201.291
20
-186.314
11
201.149
21
-186.386
0
LINE
8
BLACK
6
CONTINUOUS
10
201.149
20
-186.386
11
200.863
21
-186.386
0
LINE
8
BLACK
6
CONTINUOUS
10
200.863
20
-186.386
11
200.72
21
-186.314
0
LINE
8
BLACK
6
CONTINUOUS
10
200.72
20
-186.314
11
200.649
21
-186.243
0
LINE
8
BLACK
6
CONTINUOUS
10
200.649
20
-186.243
11
200.577
21
-186.1
0
LINE
8
BLACK
6
CONTINUOUS
10
200.577
20
-186.1
11
200.577
21
-185.671
0
LINE
8
BLACK
6
CONTINUOUS
10
200.577
20
-185.671
11
200.649
21
-185.529
0
LINE
8
BLACK
6
CONTINUOUS
10
200.649
20
-185.529
11
200.72
21
-185.457
0
LINE
8
BLACK
6
CONTINUOUS
10
200.72
20
-185.457
11
200.863
21
-185.386
0
LINE
8
BLACK
6
CONTINUOUS
10
200.863
20
-185.386
11
201.149
21
-185.386
0
LINE
8
BLACK
6
CONTINUOUS
10
201.149
20
-185.386
11
201.291
21
-185.457
0
LINE
8
BLACK
6
CONTINUOUS
10
201.649
20
-186.529
11
202.791
21
-186.529
0
LINE
8
BLACK
6
CONTINUOUS
10
203.149
20
-185.386
11
203.149
21
-186.886
0
LINE
8
BLACK
6
CONTINUOUS
10
203.149
20
-185.457
11
203.291
21
-185.386
0
LINE
8
BLACK
6
CONTINUOUS
10
203.291
20
-185.386
11
203.577
21
-185.386
0
LINE
8
BLACK
6
CONTINUOUS
10
203.577
20
-185.386
11
203.72
21
-185.457
0
LINE
8
BLACK
6
CONTINUOUS
10
203.72
20
-185.457
11
203.791
21
-185.529
0
LINE
8
BLACK
6
CONTINUOUS
10
203.791
20
-185.529
11
203.863
21
-185.671
0
LINE
8
BLACK
6
CONTINUOUS
10
203.863
20
-185.671
11
203.863
21
-186.1
0
LINE
8
BLACK
6
CONTINUOUS
10
203.863
20
-186.1
11
203.791
21
-186.243
0
LINE
8
BLACK
6
CONTINUOUS
10
203.791
20
-186.243
11
203.72
21
-186.314
0
LINE
8
BLACK
6
CONTINUOUS
10
203.72
20
-186.314
11
203.577
21
-186.386
0
LINE
8
BLACK
6
CONTINUOUS
10
203.577
20
-186.386
11
203.291
21
-186.386
0
LINE
8
BLACK
6
CONTINUOUS
10
203.291
20
-186.386
11
203.149
21
-186.314
0
LINE
8
BLACK
6
CONTINUOUS
10
205.149
20
-186.314
11
205.006
21
-186.386
0
LINE
8
BLACK
6
CONTINUOUS
10
205.006
20
-186.386
11
204.72
21
-186.386
0
LINE
8
BLACK
6
CONTINUOUS
10
204.72
20
-186.386
11
204.577
21
-186.314
0
LINE
8
BLACK
6
CONTINUOUS
10
204.577
20
-186.314
11
204.506
21
-186.243
0
LINE
8
BLACK
6
CONTINUOUS
10
204.506
20
-186.243
11
204.434
21
-186.1
0
LINE
8
BLACK
6
CONTINUOUS
10
204.434
20
-186.1
11
204.434
21
-185.671
0
LINE
8
BLACK
6
CONTINUOUS
10
204.434
20
-185.671
11
204.506
21
-185.529
0
LINE
8
BLACK
6
CONTINUOUS
10
204.506
20
-185.529
11
204.577
21
-185.457
0
LINE
8
BLACK
6
CONTINUOUS
10
204.577
20
-185.457
11
204.72
21
-185.386
0
LINE
8
BLACK
6
CONTINUOUS
10
204.72
20
-185.386
11
205.006
21
-185.386
0
LINE
8
BLACK
6
CONTINUOUS
10
205.006
20
-185.386
11
205.149
21
-185.457
0
LINE
8
BLACK
6
CONTINUOUS
10
205.791
20
-186.386
11
205.791
21
-184.886
0
LINE
8
BLACK
6
CONTINUOUS
10
205.791
20
-185.457
11
205.934
21
-185.386
0
LINE
8
BLACK
6
CONTINUOUS
10
205.934
20
-185.386
11
206.22
21
-185.386
0
LINE
8
BLACK
6
CONTINUOUS
10
206.22
20
-185.386
11
206.363
21
-185.457
0
LINE
8
BLACK
6
CONTINUOUS
10
206.363
20
-185.457
11
206.434
21
-185.529
0
LINE
8
BLACK
6
CONTINUOUS
10
206.434
20
-185.529
11
206.506
21
-185.671
0
LINE
8
BLACK
6
CONTINUOUS
10
206.506
20
-185.671
11
206.506
21
-186.1
0
LINE
8
BLACK
6
CONTINUOUS
10
206.506
20
-186.1
11
206.434
21
-186.243
0
LINE
8
BLACK
6
CONTINUOUS
10
206.434
20
-186.243
11
206.363
21
-186.314
0
LINE
8
BLACK
6
CONTINUOUS
10
206.363
20
-186.314
11
206.22
21
-186.386
0
LINE
8
BLACK
6
CONTINUOUS
10
206.22
20
-186.386
11
205.934
21
-186.386
0
LINE
8
BLACK
6
CONTINUOUS
10
205.934
20
-186.386
11
205.791
21
-186.314
0
LINE
8
BLACK
6
CONTINUOUS
10
177.002
20
-181.507
11
285.002
21
-181.507
0
LINE
8
BLACK
6
CONTINUOUS
10
178.363
20
-183.614
11
178.577
21
-183.686
0
LINE
8
BLACK
6
CONTINUOUS
10
178.577
20
-183.686
11
178.934
21
-183.686
0
LINE
8
BLACK
6
CONTINUOUS
10
178.934
20
-183.686
11
179.077
21
-183.614
0
LINE
8
BLACK
6
CONTINUOUS
10
179.077
20
-183.614
11
179.149
21
-183.543
0
LINE
8
BLACK
6
CONTINUOUS
10
179.149
20
-183.543
11
179.22
21
-183.4
0
LINE
8
BLACK
6
CONTINUOUS
10
179.22
20
-183.4
11
179.22
21
-183.257
0
LINE
8
BLACK
6
CONTINUOUS
10
179.22
20
-183.257
11
179.149
21
-183.114
0
LINE
8
BLACK
6
CONTINUOUS
10
179.149
20
-183.114
11
179.077
21
-183.043
0
LINE
8
BLACK
6
CONTINUOUS
10
179.077
20
-183.043
11
178.934
21
-182.971
0
LINE
8
BLACK
6
CONTINUOUS
10
178.934
20
-182.971
11
178.649
21
-182.9
0
LINE
8
BLACK
6
CONTINUOUS
10
178.649
20
-182.9
11
178.506
21
-182.829
0
LINE
8
BLACK
6
CONTINUOUS
10
178.506
20
-182.829
11
178.434
21
-182.757
0
LINE
8
BLACK
6
CONTINUOUS
10
178.434
20
-182.757
11
178.363
21
-182.614
0
LINE
8
BLACK
6
CONTINUOUS
10
178.363
20
-182.614
11
178.363
21
-182.471
0
LINE
8
BLACK
6
CONTINUOUS
10
178.363
20
-182.471
11
178.434
21
-182.329
0
LINE
8
BLACK
6
CONTINUOUS
10
178.434
20
-182.329
11
178.506
21
-182.257
0
LINE
8
BLACK
6
CONTINUOUS
10
178.506
20
-182.257
11
178.649
21
-182.186
0
LINE
8
BLACK
6
CONTINUOUS
10
178.649
20
-182.186
11
179.006
21
-182.186
0
LINE
8
BLACK
6
CONTINUOUS
10
179.006
20
-182.186
11
179.22
21
-182.257
0
LINE
8
BLACK
6
CONTINUOUS
10
179.863
20
-183.686
11
179.863
21
-182.186
0
LINE
8
BLACK
6
CONTINUOUS
10
180.506
20
-183.686
11
180.506
21
-182.9
0
LINE
8
BLACK
6
CONTINUOUS
10
180.506
20
-182.9
11
180.434
21
-182.757
0
LINE
8
BLACK
6
CONTINUOUS
10
180.434
20
-182.757
11
180.291
21
-182.686
0
LINE
8
BLACK
6
CONTINUOUS
10
180.291
20
-182.686
11
180.077
21
-182.686
0
LINE
8
BLACK
6
CONTINUOUS
10
180.077
20
-182.686
11
179.934
21
-182.757
0
LINE
8
BLACK
6
CONTINUOUS
10
179.934
20
-182.757
11
179.863
21
-182.829
0
LINE
8
BLACK
6
CONTINUOUS
10
181.791
20
-183.614
11
181.649
21
-183.686
0
LINE
8
BLACK
6
CONTINUOUS
10
181.649
20
-183.686
11
181.363
21
-183.686
0
LINE
8
BLACK
6
CONTINUOUS
10
181.363
20
-183.686
11
181.22
21
-183.614
0
LINE
8
BLACK
6
CONTINUOUS
10
181.22
20
-183.614
11
181.149
21
-183.471
0
LINE
8
BLACK
6
CONTINUOUS
10
181.149
20
-183.471
11
181.149
21
-182.9
0
LINE
8
BLACK
6
CONTINUOUS
10
181.149
20
-182.9
11
181.22
21
-182.757
0
LINE
8
BLACK
6
CONTINUOUS
10
181.22
20
-182.757
11
181.363
21
-182.686
0
LINE
8
BLACK
6
CONTINUOUS
10
181.363
20
-182.686
11
181.649
21
-182.686
0
LINE
8
BLACK
6
CONTINUOUS
10
181.649
20
-182.686
11
181.791
21
-182.757
0
LINE
8
BLACK
6
CONTINUOUS
10
181.791
20
-182.757
11
181.863
21
-182.9
0
LINE
8
BLACK
6
CONTINUOUS
10
181.863
20
-182.9
11
181.863
21
-183.043
0
LINE
8
BLACK
6
CONTINUOUS
10
181.863
20
-183.043
11
181.149
21
-183.186
0
LINE
8
BLACK
6
CONTINUOUS
10
183.077
20
-183.614
11
182.934
21
-183.686
0
LINE
8
BLACK
6
CONTINUOUS
10
182.934
20
-183.686
11
182.649
21
-183.686
0
LINE
8
BLACK
6
CONTINUOUS
10
182.649
20
-183.686
11
182.506
21
-183.614
0
LINE
8
BLACK
6
CONTINUOUS
10
182.506
20
-183.614
11
182.434
21
-183.471
0
LINE
8
BLACK
6
CONTINUOUS
10
182.434
20
-183.471
11
182.434
21
-182.9
0
LINE
8
BLACK
6
CONTINUOUS
10
182.434
20
-182.9
11
182.506
21
-182.757
0
LINE
8
BLACK
6
CONTINUOUS
10
182.506
20
-182.757
11
182.649
21
-182.686
0
LINE
8
BLACK
6
CONTINUOUS
10
182.649
20
-182.686
11
182.934
21
-182.686
0
LINE
8
BLACK
6
CONTINUOUS
10
182.934
20
-182.686
11
183.077
21
-182.757
0
LINE
8
BLACK
6
CONTINUOUS
10
183.077
20
-182.757
11
183.149
21
-182.9
0
LINE
8
BLACK
6
CONTINUOUS
10
183.149
20
-182.9
11
183.149
21
-183.043
0
LINE
8
BLACK
6
CONTINUOUS
10
183.149
20
-183.043
11
182.434
21
-183.186
0
LINE
8
BLACK
6
CONTINUOUS
10
183.577
20
-182.686
11
184.149
21
-182.686
0
LINE
8
BLACK
6
CONTINUOUS
10
183.791
20
-182.186
11
183.791
21
-183.471
0
LINE
8
BLACK
6
CONTINUOUS
10
183.791
20
-183.471
11
183.863
21
-183.614
0
LINE
8
BLACK
6
CONTINUOUS
10
183.863
20
-183.614
11
184.006
21
-183.686
0
LINE
8
BLACK
6
CONTINUOUS
10
184.006
20
-183.686
11
184.149
21
-183.686
0
LINE
8
BLACK
6
CONTINUOUS
10
184.649
20
-183.543
11
184.72
21
-183.614
0
LINE
8
BLACK
6
CONTINUOUS
10
184.72
20
-183.614
11
184.649
21
-183.686
0
LINE
8
BLACK
6
CONTINUOUS
10
184.649
20
-183.686
11
184.577
21
-183.614
0
LINE
8
BLACK
6
CONTINUOUS
10
184.577
20
-183.614
11
184.649
21
-183.543
0
LINE
8
BLACK
6
CONTINUOUS
10
184.649
20
-183.543
11
184.649
21
-183.686
0
LINE
8
BLACK
6
CONTINUOUS
10
184.649
20
-182.757
11
184.72
21
-182.829
0
LINE
8
BLACK
6
CONTINUOUS
10
184.72
20
-182.829
11
184.649
21
-182.9
0
LINE
8
BLACK
6
CONTINUOUS
10
184.649
20
-182.9
11
184.577
21
-182.829
0
LINE
8
BLACK
6
CONTINUOUS
10
184.577
20
-182.829
11
184.649
21
-182.757
0
LINE
8
BLACK
6
CONTINUOUS
10
184.649
20
-182.757
11
184.649
21
-182.9
0
LINE
8
BLACK
6
CONTINUOUS
10
197.002
20
-191.507
11
197.002
21
-194.507
0
LINE
8
BLACK
6
CONTINUOUS
10
261.002
20
-191.507
11
261.002
21
-198.007
0
ARC
8
BLACK
10
84.328
20
-88.5254
40
1.40335
50
90
51
174.547
0
LINE
8
BLACK
6
CONTINUOUS
10
97.282
20
-87.122
11
84.328
21
-87.122
0
ARC
8
BLACK
10
109.22
20
-85.852
40
1.27
50
-90
51
-0
0
LINE
8
BLACK
6
CONTINUOUS
10
104.394
20
-87.122
11
109.22
21
-87.122
0
LINE
8
BLACK
6
CONTINUOUS
10
97.282
20
-87.122
11
104.394
21
-87.122
0
ARC
8
BLACK
10
111.76
20
-38.354
40
1.27
50
90
51
180
0
LINE
8
BLACK
6
CONTINUOUS
10
110.49
20
-38.354
11
110.49
21
-85.852
0
LINE
8
BLACK
6
CONTINUOUS
10
143.51
20
-189.865
11
143.514
21
-139.32
0
LINE
8
BLACK
6
CONTINUOUS
10
115.062
20
-163.83
11
106.172
21
-148.336
0
LINE
8
BLACK
6
CONTINUOUS
10
115.062
20
-163.83
11
116.84
21
-167.386
0
LINE
8
BLACK
6
CONTINUOUS
10
225.206
20
-63.416
11
225.206
21
-72.8976
0
LINE
8
BLACK
6
CONTINUOUS
10
225.206
20
-72.8976
11
225.206
21
-82.3792
0
LINE
8
BLACK
6
CONTINUOUS
10
225.206
20
-82.3792
11
225.206
21
-91.8609
0
LINE
8
BLACK
6
CONTINUOUS
10
225.206
20
-91.8609
11
225.206
21
-101.342
0
LINE
8
BLACK
6
CONTINUOUS
10
225.206
20
-101.342
11
225.206
21
-110.824
0
LINE
8
BLACK
6
CONTINUOUS
10
225.206
20
-110.824
11
225.206
21
-120.306
0
LINE
8
BLACK
6
CONTINUOUS
10
225.206
20
-120.306
11
225.176
21
-120.608
0
LINE
8
BLACK
6
CONTINUOUS
10
225.176
20
-120.608
11
225.088
21
-120.89
0
LINE
8
BLACK
6
CONTINUOUS
10
225.088
20
-120.89
11
224.95
21
-121.145
0
LINE
8
BLACK
6
CONTINUOUS
10
224.95
20
-121.145
11
224.767
21
-121.367
0
LINE
8
BLACK
6
CONTINUOUS
10
224.767
20
-121.367
11
224.545
21
-121.55
0
LINE
8
BLACK
6
CONTINUOUS
10
224.545
20
-121.55
11
224.29
21
-121.688
0
LINE
8
BLACK
6
CONTINUOUS
10
224.29
20
-121.688
11
224.008
21
-121.775
0
LINE
8
BLACK
6
CONTINUOUS
10
224.008
20
-121.775
11
223.706
21
-121.806
0
LINE
8
BLACK
6
CONTINUOUS
10
225.206
20
-44.4528
11
223.774
21
-42.672
0
LINE
8
BLACK
6
CONTINUOUS
10
223.774
20
-42.672
11
220.889
21
-40.9638
0
LINE
8
BLACK
6
CONTINUOUS
10
225.206
20
-44.4528
11
225.206
21
-53.9344
0
LINE
8
BLACK
6
CONTINUOUS
10
225.206
20
-53.9344
11
225.206
21
-63.416
0
LINE
8
BLACK
6
CONTINUOUS
10
189.92
20
-37.5854
11
178.99
21
-37.2157
0
LINE
8
BLACK
6
CONTINUOUS
10
220.889
20
-40.9638
11
215.526
21
-39.8852
0
LINE
8
BLACK
6
CONTINUOUS
10
215.526
20
-39.8852
11
208.421
21
-38.9456
0
LINE
8
BLACK
6
CONTINUOUS
10
208.421
20
-38.9456
11
199.808
21
-38.1705
0
LINE
8
BLACK
6
CONTINUOUS
10
199.808
20
-38.1705
11
189.92
21
-37.5854
0
LINE
8
BLACK
6
CONTINUOUS
10
170.577
20
-121.806
11
192.101
21
-121.806
0
LINE
8
BLACK
6
CONTINUOUS
10
192.101
20
-121.806
11
197.368
21
-121.806
0
LINE
8
BLACK
6
CONTINUOUS
10
197.368
20
-121.806
11
202.636
21
-121.806
0
LINE
8
BLACK
6
CONTINUOUS
10
202.636
20
-121.806
11
207.903
21
-121.806
0
LINE
8
BLACK
6
CONTINUOUS
10
207.903
20
-121.806
11
213.171
21
-121.806
0
LINE
8
BLACK
6
CONTINUOUS
10
213.171
20
-121.806
11
218.438
21
-121.806
0
LINE
8
BLACK
6
CONTINUOUS
10
218.438
20
-121.806
11
223.706
21
-121.806
0
LINE
8
BLACK
6
CONTINUOUS
10
85.688
20
-108.649
11
86.8631
21
-112.531
0
LINE
8
BLACK
6
CONTINUOUS
10
162.084
20
-123.943
11
162.407
21
-123.348
0
ARC
8
BLACK
10
142.875
20
-189.865
40
0.634999
50
-90.0001
51
9.02297e-05
0
LINE
8
BLACK
6
CONTINUOUS
10
83.4903
20
-96.6577
11
84.021
21
-100.691
0
LINE
8
BLACK
6
CONTINUOUS
10
161.809
20
-134.012
11
161.779
21
-134.314
0
LINE
8
BLACK
6
CONTINUOUS
10
161.809
20
-126.726
11
161.809
21
-127.944
0
LINE
8
BLACK
6
CONTINUOUS
10
161.809
20
-129.162
11
161.809
21
-130.38
0
LINE
8
BLACK
6
CONTINUOUS
10
100.047
20
-137.186
11
102.87
21
-142.24
0
LINE
8
BLACK
6
CONTINUOUS
10
161.553
20
-134.851
11
161.37
21
-135.073
0
LINE
8
BLACK
6
CONTINUOUS
10
154.711
20
-135.512
11
160.309
21
-135.512
0
LINE
8
BLACK
6
CONTINUOUS
10
161.692
20
-134.596
11
161.553
21
-134.851
0
LINE
8
BLACK
6
CONTINUOUS
10
164.604
20
-121.877
11
165.354
21
-121.806
0
LINE
8
BLACK
6
CONTINUOUS
10
156.843
20
-37.0868
11
146.435
21
-37.0868
0
LINE
8
BLACK
6
CONTINUOUS
10
161.809
20
-131.598
11
161.809
21
-132.816
0
LINE
8
BLACK
6
CONTINUOUS
10
136.027
20
-37.0868
11
125.62
21
-37.0868
0
LINE
8
BLACK
6
CONTINUOUS
10
161.148
20
-135.256
11
160.893
21
-135.394
0
LINE
8
BLACK
6
CONTINUOUS
10
125.62
20
-37.0868
11
115.212
21
-37.0868
0
LINE
8
BLACK
6
CONTINUOUS
10
160.612
20
-135.481
11
160.309
21
-135.512
0
LINE
8
BLACK
6
CONTINUOUS
10
95.02
20
-128.587
11
96.6956
21
-131.454
0
LINE
8
BLACK
6
CONTINUOUS
10
91.6686
20
-122.855
11
93.3443
21
-125.721
0
LINE
8
BLACK
6
CONTINUOUS
10
178.99
20
-37.2157
11
167.251
21
-37.0868
0
LINE
8
BLACK
6
CONTINUOUS
10
84.021
20
-100.691
11
84.7471
21
-104.695
0
LINE
8
BLACK
6
CONTINUOUS
10
161.809
20
-132.816
11
161.809
21
-134.012
0
LINE
8
BLACK
6
CONTINUOUS
10
83.1357
20
-92.6176
11
83.4903
21
-96.6577
0
LINE
8
BLACK
6
CONTINUOUS
10
122.555
20
-190.5
11
142.875
21
-190.5
0
LINE
8
BLACK
6
CONTINUOUS
10
163.946
20
-122.081
11
164.604
21
-121.877
0
LINE
8
BLACK
6
CONTINUOUS
10
161.809
20
-127.944
11
161.809
21
-129.162
0
LINE
8
BLACK
6
CONTINUOUS
10
120.65
20
-177.8
11
121.92
21
-189.865
0
LINE
8
BLACK
6
CONTINUOUS
10
116.84
20
-167.386
11
120.65
21
-177.8
0
LINE
8
BLACK
6
CONTINUOUS
10
98.3713
20
-134.32
11
100.047
21
-137.186
0
LINE
8
BLACK
6
CONTINUOUS
10
165.354
20
-121.806
11
170.577
21
-121.806
0
LINE
8
BLACK
6
CONTINUOUS
10
160.893
20
-135.394
11
160.612
21
-135.481
0
LINE
8
BLACK
6
CONTINUOUS
10
161.779
20
-134.314
11
161.692
21
-134.596
0
LINE
8
BLACK
6
CONTINUOUS
10
89.9929
20
-119.988
11
91.6686
21
-122.855
0
LINE
8
BLACK
6
CONTINUOUS
10
161.809
20
-125.306
11
161.88
21
-124.6
0
LINE
8
BLACK
6
CONTINUOUS
10
82.931
20
-88.392
11
83.1289
21
-92.4172
0
LINE
8
BLACK
6
CONTINUOUS
10
162.834
20
-122.83
11
163.352
21
-122.403
0
LINE
8
BLACK
6
CONTINUOUS
10
161.809
20
-130.38
11
161.809
21
-131.598
0
LINE
8
BLACK
6
CONTINUOUS
10
167.251
20
-37.0868
11
156.843
21
-37.0868
0
LINE
8
BLACK
6
CONTINUOUS
10
146.435
20
-37.0868
11
136.027
21
-37.0868
0
LINE
8
BLACK
6
CONTINUOUS
10
147.511
20
-135.509
11
154.711
21
-135.512
0
LINE
8
BLACK
6
CONTINUOUS
10
162.407
20
-123.348
11
162.834
21
-122.83
0
LINE
8
BLACK
6
CONTINUOUS
10
102.87
20
-142.24
11
106.172
21
-148.336
0
ARC
8
BLACK
10
122.555
20
-189.865
40
0.634999
50
-180
51
-89.9999
0
LINE
8
BLACK
6
CONTINUOUS
10
96.6956
20
-131.454
11
98.3713
21
-134.32
0
LINE
8
BLACK
6
CONTINUOUS
10
88.2918
20
-116.318
11
89.9933
21
-119.99
0
LINE
8
BLACK
6
CONTINUOUS
10
163.352
20
-122.403
11
163.946
21
-122.081
0
ARC
8
BLACK
10
147.51
20
-139.509
40
4.0005
50
90
51
177.285
0
LINE
8
BLACK
6
CONTINUOUS
10
161.37
20
-135.073
11
161.148
21
-135.256
0
LINE
8
BLACK
6
CONTINUOUS
10
161.809
20
-125.306
11
161.809
21
-126.726
0
LINE
8
BLACK
6
CONTINUOUS
10
161.88
20
-124.6
11
162.084
21
-123.943
0
LINE
8
BLACK
6
CONTINUOUS
10
115.212
20
-37.0868
11
111.76
21
-37.0868
0
LINE
8
BLACK
6
CONTINUOUS
10
84.7471
20
-104.695
11
85.688
21
-108.649
0
LINE
8
BLACK
6
CONTINUOUS
10
86.8631
20
-112.531
11
88.2918
21
-116.318
0
LINE
8
BLACK
6
CONTINUOUS
10
93.3443
20
-125.721
11
95.02
21
-128.587
0
CIRCLE
8
BLACK
10
129.6
20
-59.6
40
1.20004
0
CIRCLE
8
BLACK
10
129.6
20
-97.6
40
1.20004
0
CIRCLE
8
BLACK
10
105
20
-114.8
40
1.20004
0
CIRCLE
8
BLACK
10
127.508
20
-158.496
40
1.20004
0
CIRCLE
8
BLACK
10
205.546
20
-100.635
40
1.20004
0
CIRCLE
8
BLACK
10
205.546
20
-62.435
40
1.20004
0
LINE
8
BLACK
6
CONTINUOUS
10
222.496
20
-105.016
11
222.496
21
-119.016
0
LINE
8
BLACK
6
CONTINUOUS
10
208.496
20
-119.016
11
208.496
21
-105.016
0
LINE
8
BLACK
6
CONTINUOUS
10
222.496
20
-119.016
11
208.496
21
-119.016
0
LINE
8
BLACK
6
CONTINUOUS
10
208.496
20
-105.016
11
222.496
21
-105.016
0
LINE
8
BLACK
6
CONTINUOUS
10
203.446
20
-103.516
11
203.446
21
-117.516
0
LINE
8
BLACK
6
CONTINUOUS
10
189.446
20
-117.516
11
189.446
21
-103.516
0
LINE
8
BLACK
6
CONTINUOUS
10
203.446
20
-117.516
11
189.446
21
-117.516
0
LINE
8
BLACK
6
CONTINUOUS
10
189.446
20
-103.516
11
203.446
21
-103.516
0
LINE
8
BLACK
6
CONTINUOUS
10
184.6
20
-97.8
11
184.6
21
-111.8
0
LINE
8
BLACK
6
CONTINUOUS
10
170.6
20
-111.8
11
170.6
21
-97.8
0
LINE
8
BLACK
6
CONTINUOUS
10
184.6
20
-111.8
11
170.6
21
-111.8
0
LINE
8
BLACK
6
CONTINUOUS
10
170.6
20
-97.8
11
184.6
21
-97.8
0
LINE
8
BLACK
6
CONTINUOUS
10
222.446
20
-86.016
11
222.446
21
-100.016
0
LINE
8
BLACK
6
CONTINUOUS
10
208.446
20
-100.016
11
208.446
21
-86.016
0
LINE
8
BLACK
6
CONTINUOUS
10
222.446
20
-100.016
11
208.446
21
-100.016
0
LINE
8
BLACK
6
CONTINUOUS
10
208.446
20
-86.016
11
222.446
21
-86.016
0
LINE
8
BLACK
6
CONTINUOUS
10
184.6
20
-78.7
11
184.6
21
-92.7
0
LINE
8
BLACK
6
CONTINUOUS
10
170.6
20
-92.7
11
170.6
21
-78.7
0
LINE
8
BLACK
6
CONTINUOUS
10
184.6
20
-92.7
11
170.6
21
-92.7
0
LINE
8
BLACK
6
CONTINUOUS
10
170.6
20
-78.7
11
184.6
21
-78.7
0
LINE
8
BLACK
6
CONTINUOUS
10
203.446
20
-65.316
11
203.446
21
-79.316
0
LINE
8
BLACK
6
CONTINUOUS
10
189.446
20
-79.316
11
189.446
21
-65.316
0
LINE
8
BLACK
6
CONTINUOUS
10
203.446
20
-79.316
11
189.446
21
-79.316
0
LINE
8
BLACK
6
CONTINUOUS
10
189.446
20
-65.316
11
203.446
21
-65.316
0
LINE
8
BLACK
6
CONTINUOUS
10
184.6
20
-59.6
11
184.6
21
-73.6
0
LINE
8
BLACK
6
CONTINUOUS
10
170.6
20
-73.6
11
170.6
21
-59.6
0
LINE
8
BLACK
6
CONTINUOUS
10
184.6
20
-73.6
11
170.6
21
-73.6
0
LINE
8
BLACK
6
CONTINUOUS
10
170.6
20
-59.6
11
184.6
21
-59.6
0
LINE
8
BLACK
6
CONTINUOUS
10
222.446
20
-47.916
11
222.446
21
-61.916
0
LINE
8
BLACK
6
CONTINUOUS
10
208.446
20
-61.916
11
208.446
21
-47.916
0
LINE
8
BLACK
6
CONTINUOUS
10
222.446
20
-61.916
11
208.446
21
-61.916
0
LINE
8
BLACK
6
CONTINUOUS
10
208.446
20
-47.916
11
222.446
21
-47.916
0
LINE
8
BLACK
6
CONTINUOUS
10
203.446
20
-46.416
11
203.446
21
-60.416
0
LINE
8
BLACK
6
CONTINUOUS
10
189.446
20
-60.416
11
189.446
21
-46.416
0
LINE
8
BLACK
6
CONTINUOUS
10
203.446
20
-60.416
11
189.446
21
-60.416
0
LINE
8
BLACK
6
CONTINUOUS
10
189.446
20
-46.416
11
203.446
21
-46.416
0
LINE
8
BLACK
6
CONTINUOUS
10
184.6
20
-40.6
11
184.6
21
-54.6
0
LINE
8
BLACK
6
CONTINUOUS
10
170.6
20
-54.6
11
170.6
21
-40.6
0
LINE
8
BLACK
6
CONTINUOUS
10
184.6
20
-54.6
11
170.6
21
-54.6
0
LINE
8
BLACK
6
CONTINUOUS
10
170.6
20
-40.6
11
184.6
21
-40.6
0
LINE
8
BLACK
6
CONTINUOUS
10
203.446
20
-84.516
11
203.446
21
-98.516
0
LINE
8
BLACK
6
CONTINUOUS
10
189.446
20
-98.516
11
189.446
21
-84.516
0
LINE
8
BLACK
6
CONTINUOUS
10
203.446
20
-98.516
11
189.446
21
-98.516
0
LINE
8
BLACK
6
CONTINUOUS
10
189.446
20
-84.516
11
203.446
21
-84.516
0
LINE
8
BLACK
6
CONTINUOUS
10
222.446
20
-66.816
11
222.446
21
-80.816
0
LINE
8
BLACK
6
CONTINUOUS
10
208.446
20
-80.816
11
208.446
21
-66.816
0
LINE
8
BLACK
6
CONTINUOUS
10
222.446
20
-80.816
11
208.446
21
-80.816
0
LINE
8
BLACK
6
CONTINUOUS
10
208.446
20
-66.816
11
222.446
21
-66.816
0
LINE
8
BLACK
6
CONTINUOUS
10
139.08
20
-173.34
11
139.08
21
-187.34
0
LINE
8
BLACK
6
CONTINUOUS
10
125.08
20
-187.34
11
125.08
21
-173.34
0
LINE
8
BLACK
6
CONTINUOUS
10
139.08
20
-187.34
11
125.08
21
-187.34
0
LINE
8
BLACK
6
CONTINUOUS
10
125.08
20
-173.34
11
139.08
21
-173.34
0
LINE
8
BLACK
6
CONTINUOUS
10
156
20
-116.75
11
156
21
-130.75
0
LINE
8
BLACK
6
CONTINUOUS
10
142
20
-130.75
11
142
21
-116.75
0
LINE
8
BLACK
6
CONTINUOUS
10
156
20
-130.75
11
142
21
-130.75
0
LINE
8
BLACK
6
CONTINUOUS
10
142
20
-116.75
11
156
21
-116.75
0
LINE
8
BLACK
6
CONTINUOUS
10
137
20
-119
11
137
21
-133
0
LINE
8
BLACK
6
CONTINUOUS
10
123
20
-133
11
123
21
-119
0
LINE
8
BLACK
6
CONTINUOUS
10
137
20
-133
11
123
21
-133
0
LINE
8
BLACK
6
CONTINUOUS
10
123
20
-119
11
137
21
-119
0
LINE
8
BLACK
6
CONTINUOUS
10
114.562
20
-129.562
11
102.438
21
-136.562
0
LINE
8
BLACK
6
CONTINUOUS
10
95.4378
20
-124.438
11
107.562
21
-117.438
0
LINE
8
BLACK
6
CONTINUOUS
10
102.438
20
-136.562
11
95.4378
21
-124.438
0
LINE
8
BLACK
6
CONTINUOUS
10
107.562
20
-117.438
11
114.562
21
-129.562
0
LINE
8
BLACK
6
CONTINUOUS
10
108.4
20
-90.5
11
108.4
21
-104.5
0
LINE
8
BLACK
6
CONTINUOUS
10
94.4
20
-104.5
11
94.4
21
-90.5
0
LINE
8
BLACK
6
CONTINUOUS
10
108.4
20
-104.5
11
94.4
21
-104.5
0
LINE
8
BLACK
6
CONTINUOUS
10
94.4
20
-90.5
11
108.4
21
-90.5
0
LINE
8
BLACK
6
CONTINUOUS
10
165.6
20
-96.4
11
165.6
21
-110.4
0
LINE
8
BLACK
6
CONTINUOUS
10
151.6
20
-110.4
11
151.6
21
-96.4
0
LINE
8
BLACK
6
CONTINUOUS
10
165.6
20
-110.4
11
151.6
21
-110.4
0
LINE
8
BLACK
6
CONTINUOUS
10
151.6
20
-96.4
11
165.6
21
-96.4
0
LINE
8
BLACK
6
CONTINUOUS
10
146.5
20
-97.8
11
146.5
21
-111.8
0
LINE
8
BLACK
6
CONTINUOUS
10
132.5
20
-111.8
11
132.5
21
-97.8
0
LINE
8
BLACK
6
CONTINUOUS
10
146.5
20
-111.8
11
132.5
21
-111.8
0
LINE
8
BLACK
6
CONTINUOUS
10
132.5
20
-97.8
11
146.5
21
-97.8
0
LINE
8
BLACK
6
CONTINUOUS
10
127.5
20
-100.1
11
127.5
21
-114.1
0
LINE
8
BLACK
6
CONTINUOUS
10
113.5
20
-114.1
11
113.5
21
-100.1
0
LINE
8
BLACK
6
CONTINUOUS
10
127.5
20
-114.1
11
113.5
21
-114.1
0
LINE
8
BLACK
6
CONTINUOUS
10
113.5
20
-100.1
11
127.5
21
-100.1
0
LINE
8
BLACK
6
CONTINUOUS
10
165.6
20
-77.4
11
165.6
21
-91.4
0
LINE
8
BLACK
6
CONTINUOUS
10
151.6
20
-91.4
11
151.6
21
-77.4
0
LINE
8
BLACK
6
CONTINUOUS
10
165.6
20
-91.4
11
151.6
21
-91.4
0
LINE
8
BLACK
6
CONTINUOUS
10
151.6
20
-77.4
11
165.6
21
-77.4
0
LINE
8
BLACK
6
CONTINUOUS
10
146.5
20
-78.7
11
146.5
21
-92.7
0
LINE
8
BLACK
6
CONTINUOUS
10
132.5
20
-92.7
11
132.5
21
-78.7
0
LINE
8
BLACK
6
CONTINUOUS
10
146.5
20
-92.7
11
132.5
21
-92.7
0
LINE
8
BLACK
6
CONTINUOUS
10
132.5
20
-78.7
11
146.5
21
-78.7
0
LINE
8
BLACK
6
CONTINUOUS
10
127.5
20
-81.1
11
127.5
21
-95.1
0
LINE
8
BLACK
6
CONTINUOUS
10
113.5
20
-95.1
11
113.5
21
-81.1
0
LINE
8
BLACK
6
CONTINUOUS
10
127.5
20
-95.1
11
113.5
21
-95.1
0
LINE
8
BLACK
6
CONTINUOUS
10
113.5
20
-81.1
11
127.5
21
-81.1
0
LINE
8
BLACK
6
CONTINUOUS
10
165.6
20
-58.3
11
165.6
21
-72.3
0
LINE
8
BLACK
6
CONTINUOUS
10
151.6
20
-72.3
11
151.6
21
-58.3
0
LINE
8
BLACK
6
CONTINUOUS
10
165.6
20
-72.3
11
151.6
21
-72.3
0
LINE
8
BLACK
6
CONTINUOUS
10
151.6
20
-58.3
11
165.6
21
-58.3
0
LINE
8
BLACK
6
CONTINUOUS
10
146.5
20
-59.7
11
146.5
21
-73.7
0
LINE
8
BLACK
6
CONTINUOUS
10
132.5
20
-73.7
11
132.5
21
-59.7
0
LINE
8
BLACK
6
CONTINUOUS
10
146.5
20
-73.7
11
132.5
21
-73.7
0
LINE
8
BLACK
6
CONTINUOUS
10
132.5
20
-59.7
11
146.5
21
-59.7
0
LINE
8
BLACK
6
CONTINUOUS
10
127.5
20
-62.1
11
127.5
21
-76.1
0
LINE
8
BLACK
6
CONTINUOUS
10
113.5
20
-76.1
11
113.5
21
-62.1
0
LINE
8
BLACK
6
CONTINUOUS
10
127.5
20
-76.1
11
113.5
21
-76.1
0
LINE
8
BLACK
6
CONTINUOUS
10
113.5
20
-62.1
11
127.5
21
-62.1
0
LINE
8
BLACK
6
CONTINUOUS
10
165.6
20
-39.21
11
165.6
21
-53.21
0
LINE
8
BLACK
6
CONTINUOUS
10
151.6
20
-53.21
11
151.6
21
-39.21
0
LINE
8
BLACK
6
CONTINUOUS
10
165.6
20
-53.21
11
151.6
21
-53.21
0
LINE
8
BLACK
6
CONTINUOUS
10
151.6
20
-39.21
11
165.6
21
-39.21
0
LINE
8
BLACK
6
CONTINUOUS
10
146.5
20
-40.6
11
146.5
21
-54.6
0
LINE
8
BLACK
6
CONTINUOUS
10
132.5
20
-54.6
11
132.5
21
-40.6
0
LINE
8
BLACK
6
CONTINUOUS
10
146.5
20
-54.6
11
132.5
21
-54.6
0
LINE
8
BLACK
6
CONTINUOUS
10
132.5
20
-40.6
11
146.5
21
-40.6
0
LINE
8
BLACK
6
CONTINUOUS
10
127.5
20
-43
11
127.5
21
-57
0
LINE
8
BLACK
6
CONTINUOUS
10
113.5
20
-57
11
113.5
21
-43
0
LINE
8
BLACK
6
CONTINUOUS
10
127.5
20
-57
11
113.5
21
-57
0
LINE
8
BLACK
6
CONTINUOUS
10
113.5
20
-43
11
127.5
21
-43
  0
ENDSEC
  0
EOF
